<?xml version="1.0" encoding="utf-8" standalone="no"?>
<!DOCTYPE svg PUBLIC "-//W3C//DTD SVG 1.1//EN"
  "http://www.w3.org/Graphics/SVG/1.1/DTD/svg11.dtd">
<!-- Created with matplotlib (https://matplotlib.org/) -->
<svg height="342.838125pt" version="1.1" viewBox="0 0 366.082812 342.838125" width="366.082812pt" xmlns="http://www.w3.org/2000/svg" xmlns:xlink="http://www.w3.org/1999/xlink">
 <defs>
  <style type="text/css">
*{stroke-linecap:butt;stroke-linejoin:round;}
  </style>
 </defs>
 <g id="figure_1">
  <g id="patch_1">
   <path d="M 0 342.838125 
L 366.082812 342.838125 
L 366.082812 0 
L 0 0 
z
" style="fill:none;"/>
  </g>
  <g id="axes_1">
   <g id="patch_2">
    <path clip-path="url(#p7f1009dbb5)" d="M 337.02992 181.814736 
Q 307.778197 232.116908 298.977692 287.079939 
" style="fill:none;stroke:#000000;stroke-linecap:round;stroke-opacity:0.228877;stroke-width:2;"/>
    <path clip-path="url(#p7f1009dbb5)" d="M 301.584949 283.446454 
L 298.977692 287.079939 
L 297.635258 282.814042 
L 301.584949 283.446454 
z
" style="fill-opacity:0.228877;stroke:#000000;stroke-linecap:round;stroke-opacity:0.228877;stroke-width:2;"/>
   </g>
   <g id="patch_3">
    <path clip-path="url(#p7f1009dbb5)" d="M 297.370116 297.856859 
Q 297.370116 297.856859 297.370116 297.856859 
" style="fill:none;stroke:#000000;stroke-linecap:round;stroke-opacity:0.769009;stroke-width:2;"/>
   </g>
   <g id="patch_4">
    <path clip-path="url(#p7f1009dbb5)" d="M 297.370116 297.856859 
Q 287.573431 177.264118 234.724599 71.265607 
" style="fill:none;stroke:#000000;stroke-linecap:round;stroke-opacity:0.304807;stroke-width:2;"/>
    <path clip-path="url(#p7f1009dbb5)" d="M 234.719519 75.73774 
L 234.724599 71.265607 
L 238.299257 73.952951 
L 234.719519 75.73774 
z
" style="fill-opacity:0.304807;stroke:#000000;stroke-linecap:round;stroke-opacity:0.304807;stroke-width:2;"/>
   </g>
   <g id="patch_5">
    <path clip-path="url(#p7f1009dbb5)" d="M 297.370116 297.856859 
Q 255.889332 203.55161 184.258295 133.085495 
" style="fill:none;stroke:#000000;stroke-linecap:round;stroke-opacity:0.597727;stroke-width:2;"/>
    <path clip-path="url(#p7f1009dbb5)" d="M 185.707241 137.316399 
L 184.258295 133.085495 
L 188.512386 134.46488 
L 185.707241 137.316399 
z
" style="fill-opacity:0.597727;stroke:#000000;stroke-linecap:round;stroke-opacity:0.597727;stroke-width:2;"/>
   </g>
   <g id="patch_6">
    <path clip-path="url(#p7f1009dbb5)" d="M 297.370116 297.856859 
Q 238.10774 202.033374 149.544155 136.585095 
" style="fill:none;stroke:#000000;stroke-linecap:round;stroke-opacity:0.393966;stroke-width:2;"/>
    <path clip-path="url(#p7f1009dbb5)" d="M 151.57242 140.570838 
L 149.544155 136.585095 
L 153.949707 137.353929 
L 151.57242 140.570838 
z
" style="fill-opacity:0.393966;stroke:#000000;stroke-linecap:round;stroke-opacity:0.393966;stroke-width:2;"/>
   </g>
   <g id="patch_7">
    <path clip-path="url(#p7f1009dbb5)" d="M 229.81155 61.541141 
Q 229.81155 61.541141 229.81155 61.541141 
" style="fill:none;stroke:#000000;stroke-linecap:round;stroke-opacity:0.128957;stroke-width:2;"/>
   </g>
   <g id="patch_8">
    <path clip-path="url(#p7f1009dbb5)" d="M 229.81155 61.541141 
Q 199.043496 149.583946 202.801845 240.228975 
" style="fill:none;stroke:#000000;stroke-linecap:round;stroke-opacity:0.982473;stroke-width:2;"/>
    <path clip-path="url(#p7f1009dbb5)" d="M 204.634421 236.149556 
L 202.801845 240.228975 
L 200.637855 236.315263 
L 204.634421 236.149556 
z
" style="fill-opacity:0.982473;stroke:#000000;stroke-linecap:round;stroke-opacity:0.982473;stroke-width:2;"/>
   </g>
   <g id="patch_9">
    <path clip-path="url(#p7f1009dbb5)" d="M 176.443917 125.492979 
Q 206.138094 101.579687 224.380358 70.986018 
" style="fill:none;stroke:#000000;stroke-linecap:round;stroke-opacity:0.201809;stroke-width:2;"/>
    <path clip-path="url(#p7f1009dbb5)" d="M 220.613989 73.397338 
L 224.380358 70.986018 
L 224.049593 75.445905 
L 220.613989 73.397338 
z
" style="fill-opacity:0.201809;stroke:#000000;stroke-linecap:round;stroke-opacity:0.201809;stroke-width:2;"/>
   </g>
   <g id="patch_10">
    <path clip-path="url(#p7f1009dbb5)" d="M 176.443917 125.492979 
Q 176.443917 125.492979 176.443917 125.492979 
" style="fill:none;stroke:#000000;stroke-linecap:round;stroke-opacity:0.067424;stroke-width:2;"/>
   </g>
   <g id="patch_11">
    <path clip-path="url(#p7f1009dbb5)" d="M 140.743683 130.158648 
Q 188.247989 106.679969 222.510191 69.624875 
" style="fill:none;stroke:#000000;stroke-linecap:round;stroke-opacity:0.117736;stroke-width:2;"/>
    <path clip-path="url(#p7f1009dbb5)" d="M 218.326141 71.204026 
L 222.510191 69.624875 
L 221.263082 73.919607 
L 218.326141 71.204026 
z
" style="fill-opacity:0.117736;stroke:#000000;stroke-linecap:round;stroke-opacity:0.117736;stroke-width:2;"/>
   </g>
   <g id="patch_12">
    <path clip-path="url(#p7f1009dbb5)" d="M 140.743683 130.158648 
Q 154.707024 131.101793 165.953212 128.415102 
" style="fill:none;stroke:#000000;stroke-linecap:round;stroke-opacity:0.32803;stroke-width:2;"/>
    <path clip-path="url(#p7f1009dbb5)" d="M 161.597973 127.399279 
L 165.953212 128.415102 
L 162.527411 131.289799 
L 161.597973 127.399279 
z
" style="fill-opacity:0.32803;stroke:#000000;stroke-linecap:round;stroke-opacity:0.32803;stroke-width:2;"/>
   </g>
   <g id="patch_13">
    <path clip-path="url(#p7f1009dbb5)" d="M 140.743683 130.158648 
Q 140.743683 130.158648 140.743683 130.158648 
" style="fill:none;stroke:#000000;stroke-linecap:round;stroke-opacity:0.264419;stroke-width:2;"/>
   </g>
   <g id="patch_14">
    <path clip-path="url(#p7f1009dbb5)" d="M 84.898315 154.174497 
Q 84.898315 154.174497 84.898315 154.174497 
" style="fill:none;stroke:#000000;stroke-linecap:round;stroke-opacity:0.260519;stroke-width:2;"/>
   </g>
   <g id="patch_15">
    <path clip-path="url(#p7f1009dbb5)" d="M 84.898315 154.174497 
Q 119.338921 99.742279 131.253426 39.017012 
" style="fill:none;stroke:#000000;stroke-linecap:round;stroke-opacity:0.059063;stroke-width:2;"/>
    <path clip-path="url(#p7f1009dbb5)" d="M 128.520715 42.557109 
L 131.253426 39.017012 
L 132.445877 43.32724 
L 128.520715 42.557109 
z
" style="fill-opacity:0.059063;stroke:#000000;stroke-linecap:round;stroke-opacity:0.059063;stroke-width:2;"/>
   </g>
   <g id="patch_16">
    <path clip-path="url(#p7f1009dbb5)" d="M 133.247597 28.303141 
Q 176.514091 93.39204 238.511682 136.691415 
" style="fill:none;stroke:#000000;stroke-linecap:round;stroke-opacity:0.759664;stroke-width:2;"/>
    <path clip-path="url(#p7f1009dbb5)" d="M 236.377465 132.761387 
L 238.511682 136.691415 
L 234.087129 136.040771 
L 236.377465 132.761387 
z
" style="fill-opacity:0.759664;stroke:#000000;stroke-linecap:round;stroke-opacity:0.759664;stroke-width:2;"/>
   </g>
   <g id="patch_17">
    <path clip-path="url(#p7f1009dbb5)" d="M 133.247597 28.303141 
Q 127.347006 75.670376 138.032698 119.60532 
" style="fill:none;stroke:#000000;stroke-linecap:round;stroke-opacity:0.181012;stroke-width:2;"/>
    <path clip-path="url(#p7f1009dbb5)" d="M 139.030738 115.245972 
L 138.032698 119.60532 
L 135.144043 116.191279 
L 139.030738 115.245972 
z
" style="fill-opacity:0.181012;stroke:#000000;stroke-linecap:round;stroke-opacity:0.181012;stroke-width:2;"/>
   </g>
   <g id="patch_18">
    <path clip-path="url(#p7f1009dbb5)" d="M 60.335705 84.041614 
Q 142.995248 89.455468 219.462034 64.945918 
" style="fill:none;stroke:#000000;stroke-linecap:round;stroke-opacity:0.220064;stroke-width:2;"/>
    <path clip-path="url(#p7f1009dbb5)" d="M 215.04246 64.262279 
L 219.462034 64.945918 
L 216.263378 68.071394 
L 215.04246 64.262279 
z
" style="fill-opacity:0.220064;stroke:#000000;stroke-linecap:round;stroke-opacity:0.220064;stroke-width:2;"/>
   </g>
   <g id="patch_19">
    <path clip-path="url(#p7f1009dbb5)" d="M 247.495697 142.85841 
Q 284.801149 168.809346 326.429276 179.295646 
" style="fill:none;stroke:#000000;stroke-linecap:round;stroke-opacity:0.992214;stroke-width:2;"/>
    <path clip-path="url(#p7f1009dbb5)" d="M 323.038997 176.379141 
L 326.429276 179.295646 
L 322.061904 180.257967 
L 323.038997 176.379141 
z
" style="fill-opacity:0.992214;stroke:#000000;stroke-linecap:round;stroke-opacity:0.992214;stroke-width:2;"/>
   </g>
   <g id="patch_20">
    <path clip-path="url(#p7f1009dbb5)" d="M 247.495697 142.85841 
Q 247.495697 142.85841 247.495697 142.85841 
" style="fill:none;stroke:#000000;stroke-linecap:round;stroke-opacity:0.078775;stroke-width:2;"/>
   </g>
   <g id="patch_21">
    <path clip-path="url(#p7f1009dbb5)" d="M 203.327654 251.114409 
Q 150.330058 253.92368 104.142632 274.466109 
" style="fill:none;stroke:#000000;stroke-linecap:round;stroke-opacity:0.178642;stroke-width:2;"/>
    <path clip-path="url(#p7f1009dbb5)" d="M 108.610209 274.667992 
L 104.142632 274.466109 
L 106.984685 271.013177 
L 108.610209 274.667992 
z
" style="fill-opacity:0.178642;stroke:#000000;stroke-linecap:round;stroke-opacity:0.178642;stroke-width:2;"/>
   </g>
   <g id="patch_22">
    <path clip-path="url(#p7f1009dbb5)" d="M 94.236616 279.011008 
Q 101.519545 219.968364 87.660413 164.716809 
" style="fill:none;stroke:#000000;stroke-linecap:round;stroke-opacity:0.732319;stroke-width:2;"/>
    <path clip-path="url(#p7f1009dbb5)" d="M 86.693709 169.083213 
L 87.660413 164.716809 
L 90.573514 168.110015 
L 86.693709 169.083213 
z
" style="fill-opacity:0.732319;stroke:#000000;stroke-linecap:round;stroke-opacity:0.732319;stroke-width:2;"/>
   </g>
   <g id="patch_23">
    <path clip-path="url(#p7f1009dbb5)" d="M 94.236616 279.011008 
Q 96.673642 182.472223 64.169941 94.241485 
" style="fill:none;stroke:#000000;stroke-linecap:round;stroke-opacity:0.982545;stroke-width:2;"/>
    <path clip-path="url(#p7f1009dbb5)" d="M 63.675971 98.686257 
L 64.169941 94.241485 
L 67.429376 97.303523 
L 63.675971 98.686257 
z
" style="fill-opacity:0.982545;stroke:#000000;stroke-linecap:round;stroke-opacity:0.982545;stroke-width:2;"/>
   </g>
   <g id="patch_24">
    <path clip-path="url(#p7f1009dbb5)" d="M 94.236616 279.011008 
Q 137.318538 161.629704 133.631687 39.195605 
" style="fill:none;stroke:#000000;stroke-linecap:round;stroke-opacity:0.937542;stroke-width:2;"/>
    <path clip-path="url(#p7f1009dbb5)" d="M 131.75299 43.253991 
L 133.631687 39.195605 
L 135.751178 43.133594 
L 131.75299 43.253991 
z
" style="fill-opacity:0.937542;stroke:#000000;stroke-linecap:round;stroke-opacity:0.937542;stroke-width:2;"/>
   </g>
   <g id="patch_25">
    <path clip-path="url(#p7f1009dbb5)" d="M 94.236616 279.011008 
Q 180.737282 228.44916 240.843721 151.488427 
" style="fill:none;stroke:#000000;stroke-linecap:round;stroke-opacity:0.107586;stroke-width:2;"/>
    <path clip-path="url(#p7f1009dbb5)" d="M 236.805392 153.40986 
L 240.843721 151.488427 
L 239.95787 155.871949 
L 236.805392 153.40986 
z
" style="fill-opacity:0.107586;stroke:#000000;stroke-linecap:round;stroke-opacity:0.107586;stroke-width:2;"/>
   </g>
   <g id="patch_26">
    <path clip-path="url(#p7f1009dbb5)" d="M 94.236616 279.011008 
Q 94.236616 279.011008 94.236616 279.011008 
" style="fill:none;stroke:#000000;stroke-linecap:round;stroke-opacity:0.799305;stroke-width:2;"/>
   </g>
   <g id="PathCollection_1">
    <defs>
     <path d="M 0 7.905694 
C 2.096615 7.905694 4.10764 7.0727 5.59017 5.59017 
C 7.0727 4.10764 7.905694 2.096615 7.905694 0 
C 7.905694 -2.096615 7.0727 -4.10764 5.59017 -5.59017 
C 4.10764 -7.0727 2.096615 -7.905694 0 -7.905694 
C -2.096615 -7.905694 -4.10764 -7.0727 -5.59017 -5.59017 
C -7.0727 -4.10764 -7.905694 -2.096615 -7.905694 0 
C -7.905694 2.096615 -7.0727 4.10764 -5.59017 5.59017 
C -4.10764 7.0727 -2.096615 7.905694 0 7.905694 
z
" id="C0_0_15d9e83e9d"/>
    </defs>
    <g clip-path="url(#p7f1009dbb5)">
     <use style="fill:#165016;stroke:#165016;" x="337.02992" xlink:href="#C0_0_15d9e83e9d" y="181.814736"/>
    </g>
    <g clip-path="url(#p7f1009dbb5)">
     <use style="fill:#6b1414;stroke:#6b1414;" x="297.370116" xlink:href="#C0_0_15d9e83e9d" y="297.856859"/>
    </g>
    <g clip-path="url(#p7f1009dbb5)">
     <use style="fill:#4a345e;stroke:#4a345e;" x="229.81155" xlink:href="#C0_0_15d9e83e9d" y="61.541141"/>
    </g>
    <g clip-path="url(#p7f1009dbb5)">
     <use style="fill:#624e4a;stroke:#624e4a;" x="176.443917" xlink:href="#C0_0_15d9e83e9d" y="125.492979"/>
    </g>
    <g clip-path="url(#p7f1009dbb5)">
     <use style="fill:#62586a;stroke:#62586a;" x="140.743683" xlink:href="#C0_0_15d9e83e9d" y="130.158648"/>
    </g>
    <g clip-path="url(#p7f1009dbb5)">
     <use style="fill:#804c4b;stroke:#804c4b;" x="84.898315" xlink:href="#C0_0_15d9e83e9d" y="154.174497"/>
    </g>
    <g clip-path="url(#p7f1009dbb5)">
     <use style="fill:#103c5a;stroke:#103c5a;" x="133.247597" xlink:href="#C0_0_15d9e83e9d" y="28.303141"/>
    </g>
    <g clip-path="url(#p7f1009dbb5)">
     <use style="fill:#804007;stroke:#804007;" x="60.335705" xlink:href="#C0_0_15d9e83e9d" y="84.041614"/>
    </g>
    <g clip-path="url(#p7f1009dbb5)">
     <use style="fill:#576474;stroke:#576474;" x="247.495697" xlink:href="#C0_0_15d9e83e9d" y="142.85841"/>
    </g>
    <g clip-path="url(#p7f1009dbb5)">
     <use style="fill:#462b26;stroke:#462b26;" x="203.327654" xlink:href="#C0_0_15d9e83e9d" y="251.114409"/>
    </g>
    <g clip-path="url(#p7f1009dbb5)">
     <use style="fill:#805e3c;stroke:#805e3c;" x="94.236616" xlink:href="#C0_0_15d9e83e9d" y="279.011008"/>
    </g>
   </g>
   <g id="PathCollection_2">
    <defs>
     <path d="M 0 6.123724 
C 1.624031 6.123724 3.181764 5.47849 4.330127 4.330127 
C 5.47849 3.181764 6.123724 1.624031 6.123724 0 
C 6.123724 -1.624031 5.47849 -3.181764 4.330127 -4.330127 
C 3.181764 -5.47849 1.624031 -6.123724 0 -6.123724 
C -1.624031 -6.123724 -3.181764 -5.47849 -4.330127 -4.330127 
C -5.47849 -3.181764 -6.123724 -1.624031 -6.123724 0 
C -6.123724 1.624031 -5.47849 3.181764 -4.330127 4.330127 
C -3.181764 5.47849 -1.624031 6.123724 0 6.123724 
z
" id="C1_0_6711d32527"/>
    </defs>
    <g clip-path="url(#p7f1009dbb5)">
     <use style="fill:#2ca02c;stroke:#2ca02c;" x="337.02992" xlink:href="#C1_0_6711d32527" y="181.814736"/>
    </g>
    <g clip-path="url(#p7f1009dbb5)">
     <use style="fill:#d62728;stroke:#d62728;" x="297.370116" xlink:href="#C1_0_6711d32527" y="297.856859"/>
    </g>
    <g clip-path="url(#p7f1009dbb5)">
     <use style="fill:#9467bd;stroke:#9467bd;" x="229.81155" xlink:href="#C1_0_6711d32527" y="61.541141"/>
    </g>
    <g clip-path="url(#p7f1009dbb5)">
     <use style="fill:#c49c94;stroke:#c49c94;" x="176.443917" xlink:href="#C1_0_6711d32527" y="125.492979"/>
    </g>
    <g clip-path="url(#p7f1009dbb5)">
     <use style="fill:#c5b0d5;stroke:#c5b0d5;" x="140.743683" xlink:href="#C1_0_6711d32527" y="130.158648"/>
    </g>
    <g clip-path="url(#p7f1009dbb5)">
     <use style="fill:#ff9896;stroke:#ff9896;" x="84.898315" xlink:href="#C1_0_6711d32527" y="154.174497"/>
    </g>
    <g clip-path="url(#p7f1009dbb5)">
     <use style="fill:#1f77b4;stroke:#1f77b4;" x="133.247597" xlink:href="#C1_0_6711d32527" y="28.303141"/>
    </g>
    <g clip-path="url(#p7f1009dbb5)">
     <use style="fill:#ff7f0e;stroke:#ff7f0e;" x="60.335705" xlink:href="#C1_0_6711d32527" y="84.041614"/>
    </g>
    <g clip-path="url(#p7f1009dbb5)">
     <use style="fill:#aec7e8;stroke:#aec7e8;" x="247.495697" xlink:href="#C1_0_6711d32527" y="142.85841"/>
    </g>
    <g clip-path="url(#p7f1009dbb5)">
     <use style="fill:#8c564b;stroke:#8c564b;" x="203.327654" xlink:href="#C1_0_6711d32527" y="251.114409"/>
    </g>
    <g clip-path="url(#p7f1009dbb5)">
     <use style="fill:#ffbb78;stroke:#ffbb78;" x="94.236616" xlink:href="#C1_0_6711d32527" y="279.011008"/>
    </g>
   </g>
  </g>
 </g>
 <defs>
  <clipPath id="p7f1009dbb5">
   <rect height="326.16" width="334.8" x="31.282813" y="-0"/>
  </clipPath>
 </defs>
</svg>
