<?xml version="1.0" encoding="utf-8" standalone="no"?>
<!DOCTYPE svg PUBLIC "-//W3C//DTD SVG 1.1//EN"
  "http://www.w3.org/Graphics/SVG/1.1/DTD/svg11.dtd">
<!-- Created with matplotlib (https://matplotlib.org/) -->
<svg height="342.838125pt" version="1.1" viewBox="0 0 362.904687 342.838125" width="362.904687pt" xmlns="http://www.w3.org/2000/svg" xmlns:xlink="http://www.w3.org/1999/xlink">
 <defs>
  <style type="text/css">
*{stroke-linecap:butt;stroke-linejoin:round;}
  </style>
 </defs>
 <g id="figure_1">
  <g id="patch_1">
   <path d="M 0 342.838125 
L 362.904687 342.838125 
L 362.904687 0 
L 0 0 
z
" style="fill:none;"/>
  </g>
  <g id="axes_1">
   <g id="patch_2">
    <path clip-path="url(#p0fd2d587f1)" d="M 332.09218 120.264386 
Q 188.893649 150.068491 69.385694 229.894506 
" style="fill:none;stroke:#000000;stroke-linecap:round;stroke-opacity:0.997909;stroke-width:2;"/>
    <path clip-path="url(#p0fd2d587f1)" d="M 73.822799 229.335848 
L 69.385694 229.894506 
L 71.601031 226.009627 
L 73.822799 229.335848 
z
" style="fill-opacity:0.997909;stroke:#000000;stroke-linecap:round;stroke-opacity:0.997909;stroke-width:2;"/>
   </g>
   <g id="patch_3">
    <path clip-path="url(#p0fd2d587f1)" d="M 60.349119 235.988412 
Q 103.693107 274.589319 155.6551 294.130233 
" style="fill:none;stroke:#000000;stroke-linecap:round;stroke-opacity:0.455351;stroke-width:2;"/>
    <path clip-path="url(#p0fd2d587f1)" d="M 152.615081 290.850251 
L 155.6551 294.130233 
L 151.207103 294.594259 
L 152.615081 290.850251 
z
" style="fill-opacity:0.455351;stroke:#000000;stroke-linecap:round;stroke-opacity:0.455351;stroke-width:2;"/>
   </g>
   <g id="patch_4">
    <path clip-path="url(#p0fd2d587f1)" d="M 165.063588 28.30314 
Q 236.067062 88.190849 321.738366 116.876306 
" style="fill:none;stroke:#000000;stroke-linecap:round;stroke-opacity:0.918887;stroke-width:2;"/>
    <path clip-path="url(#p0fd2d587f1)" d="M 318.580353 113.709769 
L 321.738366 116.876306 
L 317.310329 117.502794 
L 318.580353 113.709769 
z
" style="fill-opacity:0.918887;stroke:#000000;stroke-linecap:round;stroke-opacity:0.918887;stroke-width:2;"/>
   </g>
   <g id="patch_5">
    <path clip-path="url(#p0fd2d587f1)" d="M 333.851795 211.600761 
Q 245.42125 236.746775 174.496358 291.163702 
" style="fill:none;stroke:#000000;stroke-linecap:round;stroke-opacity:0.54222;stroke-width:2;"/>
    <path clip-path="url(#p0fd2d587f1)" d="M 178.887337 290.315583 
L 174.496358 291.163702 
L 176.45245 287.142047 
L 178.887337 290.315583 
z
" style="fill-opacity:0.54222;stroke:#000000;stroke-linecap:round;stroke-opacity:0.54222;stroke-width:2;"/>
   </g>
   <g id="patch_6">
    <path clip-path="url(#p0fd2d587f1)" d="M 165.896674 297.85686 
Q 179.250093 264.965747 180.343608 231.987849 
" style="fill:none;stroke:#000000;stroke-linecap:round;stroke-opacity:0.997268;stroke-width:2;"/>
    <path clip-path="url(#p0fd2d587f1)" d="M 178.212143 235.91937 
L 180.343608 231.987849 
L 182.209946 236.051933 
L 178.212143 235.91937 
z
" style="fill-opacity:0.997268;stroke:#000000;stroke-linecap:round;stroke-opacity:0.997268;stroke-width:2;"/>
   </g>
   <g id="patch_7">
    <path clip-path="url(#p0fd2d587f1)" d="M 86.808944 93.951619 
Q 144.765173 123.828063 207.091583 130.415017 
" style="fill:none;stroke:#000000;stroke-linecap:round;stroke-opacity:0.089178;stroke-width:2;"/>
    <path clip-path="url(#p0fd2d587f1)" d="M 203.323935 128.005695 
L 207.091583 130.415017 
L 202.903537 131.983542 
L 203.323935 128.005695 
z
" style="fill-opacity:0.089178;stroke:#000000;stroke-linecap:round;stroke-opacity:0.089178;stroke-width:2;"/>
   </g>
   <g id="patch_8">
    <path clip-path="url(#p0fd2d587f1)" d="M 86.808944 93.951619 
Q 67.077716 123.856916 59.467972 156.301451 
" style="fill:none;stroke:#000000;stroke-linecap:round;stroke-opacity:0.993484;stroke-width:2;"/>
    <path clip-path="url(#p0fd2d587f1)" d="M 62.328528 152.863833 
L 59.467972 156.301451 
L 58.434211 151.950435 
L 62.328528 152.863833 
z
" style="fill-opacity:0.993484;stroke:#000000;stroke-linecap:round;stroke-opacity:0.993484;stroke-width:2;"/>
   </g>
   <g id="patch_9">
    <path clip-path="url(#p0fd2d587f1)" d="M 217.937714 131.456056 
Q 271.813074 136.843565 321.612965 123.253358 
" style="fill:none;stroke:#000000;stroke-linecap:round;stroke-opacity:0.080225;stroke-width:2;"/>
    <path clip-path="url(#p0fd2d587f1)" d="M 317.227537 122.37699 
L 321.612965 123.253358 
L 318.280613 126.23588 
L 317.227537 122.37699 
z
" style="fill-opacity:0.080225;stroke:#000000;stroke-linecap:round;stroke-opacity:0.080225;stroke-width:2;"/>
   </g>
   <g id="patch_10">
    <path clip-path="url(#p0fd2d587f1)" d="M 217.937714 131.456056 
Q 203.00018 78.769167 171.691739 36.950592 
" style="fill:none;stroke:#000000;stroke-linecap:round;stroke-opacity:0.996785;stroke-width:2;"/>
    <path clip-path="url(#p0fd2d587f1)" d="M 172.487999 41.35127 
L 171.691739 36.950592 
L 175.690038 38.95399 
L 172.487999 41.35127 
z
" style="fill-opacity:0.996785;stroke:#000000;stroke-linecap:round;stroke-opacity:0.996785;stroke-width:2;"/>
   </g>
   <g id="patch_11">
    <path clip-path="url(#p0fd2d587f1)" d="M 217.937714 131.456056 
Q 217.937714 131.456056 217.937714 131.456056 
" style="fill:none;stroke:#000000;stroke-linecap:round;stroke-opacity:0.829082;stroke-width:2;"/>
   </g>
   <g id="patch_12">
    <path clip-path="url(#p0fd2d587f1)" d="M 57.15758 166.950318 
Q 186.980444 215.429163 322.964771 211.93145 
" style="fill:none;stroke:#000000;stroke-linecap:round;stroke-opacity:0.999213;stroke-width:2;"/>
    <path clip-path="url(#p0fd2d587f1)" d="M 318.914668 210.034963 
L 322.964771 211.93145 
L 319.017519 214.03364 
L 318.914668 210.034963 
z
" style="fill-opacity:0.999213;stroke:#000000;stroke-linecap:round;stroke-opacity:0.999213;stroke-width:2;"/>
   </g>
   <g id="patch_13">
    <path clip-path="url(#p0fd2d587f1)" d="M 180.520967 221.096558 
Q 148.218432 152.081889 94.774783 101.383857 
" style="fill:none;stroke:#000000;stroke-linecap:round;stroke-opacity:0.996174;stroke-width:2;"/>
    <path clip-path="url(#p0fd2d587f1)" d="M 96.300321 105.587753 
L 94.774783 101.383857 
L 99.053222 102.685765 
L 96.300321 105.587753 
z
" style="fill-opacity:0.996174;stroke:#000000;stroke-linecap:round;stroke-opacity:0.996174;stroke-width:2;"/>
   </g>
   <g id="patch_14">
    <path clip-path="url(#p0fd2d587f1)" d="M 180.520967 221.096558 
Q 205.765467 183.622135 215.575705 142.096071 
" style="fill:none;stroke:#000000;stroke-linecap:round;stroke-opacity:0.064781;stroke-width:2;"/>
    <path clip-path="url(#p0fd2d587f1)" d="M 212.709626 145.529086 
L 215.575705 142.096071 
L 216.60247 146.448743 
L 212.709626 145.529086 
z
" style="fill-opacity:0.064781;stroke:#000000;stroke-linecap:round;stroke-opacity:0.064781;stroke-width:2;"/>
   </g>
   <g id="PathCollection_1">
    <defs>
     <path d="M 0 7.905694 
C 2.096615 7.905694 4.10764 7.0727 5.59017 5.59017 
C 7.0727 4.10764 7.905694 2.096615 7.905694 0 
C 7.905694 -2.096615 7.0727 -4.10764 5.59017 -5.59017 
C 4.10764 -7.0727 2.096615 -7.905694 0 -7.905694 
C -2.096615 -7.905694 -4.10764 -7.0727 -5.59017 -5.59017 
C -7.0727 -4.10764 -7.905694 -2.096615 -7.905694 0 
C -7.905694 2.096615 -7.0727 4.10764 -5.59017 5.59017 
C -4.10764 7.0727 -2.096615 7.905694 0 7.905694 
z
" id="C0_0_7fe95df150"/>
    </defs>
    <g clip-path="url(#p0fd2d587f1)">
     <use style="fill:#4a345e;stroke:#4a345e;" x="332.09218" xlink:href="#C0_0_7fe95df150" y="120.264386"/>
    </g>
    <g clip-path="url(#p0fd2d587f1)">
     <use style="fill:#804c4b;stroke:#804c4b;" x="60.349119" xlink:href="#C0_0_7fe95df150" y="235.988412"/>
    </g>
    <g clip-path="url(#p0fd2d587f1)">
     <use style="fill:#804007;stroke:#804007;" x="165.063588" xlink:href="#C0_0_7fe95df150" y="28.30314"/>
    </g>
    <g clip-path="url(#p0fd2d587f1)">
     <use style="fill:#103c5a;stroke:#103c5a;" x="333.851795" xlink:href="#C0_0_7fe95df150" y="211.600761"/>
    </g>
    <g clip-path="url(#p0fd2d587f1)">
     <use style="fill:#576474;stroke:#576474;" x="165.896674" xlink:href="#C0_0_7fe95df150" y="297.85686"/>
    </g>
    <g clip-path="url(#p0fd2d587f1)">
     <use style="fill:#805e3c;stroke:#805e3c;" x="86.808944" xlink:href="#C0_0_7fe95df150" y="93.951619"/>
    </g>
    <g clip-path="url(#p0fd2d587f1)">
     <use style="fill:#6b1414;stroke:#6b1414;" x="217.937714" xlink:href="#C0_0_7fe95df150" y="131.456056"/>
    </g>
    <g clip-path="url(#p0fd2d587f1)">
     <use style="fill:#165016;stroke:#165016;" x="57.15758" xlink:href="#C0_0_7fe95df150" y="166.950318"/>
    </g>
    <g clip-path="url(#p0fd2d587f1)">
     <use style="fill:#4c7045;stroke:#4c7045;" x="180.520967" xlink:href="#C0_0_7fe95df150" y="221.096558"/>
    </g>
   </g>
   <g id="PathCollection_2">
    <defs>
     <path d="M 0 6.123724 
C 1.624031 6.123724 3.181764 5.47849 4.330127 4.330127 
C 5.47849 3.181764 6.123724 1.624031 6.123724 0 
C 6.123724 -1.624031 5.47849 -3.181764 4.330127 -4.330127 
C 3.181764 -5.47849 1.624031 -6.123724 0 -6.123724 
C -1.624031 -6.123724 -3.181764 -5.47849 -4.330127 -4.330127 
C -5.47849 -3.181764 -6.123724 -1.624031 -6.123724 0 
C -6.123724 1.624031 -5.47849 3.181764 -4.330127 4.330127 
C -3.181764 5.47849 -1.624031 6.123724 0 6.123724 
z
" id="C1_0_d8607b4584"/>
    </defs>
    <g clip-path="url(#p0fd2d587f1)">
     <use style="fill:#9467bd;stroke:#9467bd;" x="332.09218" xlink:href="#C1_0_d8607b4584" y="120.264386"/>
    </g>
    <g clip-path="url(#p0fd2d587f1)">
     <use style="fill:#ff9896;stroke:#ff9896;" x="60.349119" xlink:href="#C1_0_d8607b4584" y="235.988412"/>
    </g>
    <g clip-path="url(#p0fd2d587f1)">
     <use style="fill:#ff7f0e;stroke:#ff7f0e;" x="165.063588" xlink:href="#C1_0_d8607b4584" y="28.30314"/>
    </g>
    <g clip-path="url(#p0fd2d587f1)">
     <use style="fill:#1f77b4;stroke:#1f77b4;" x="333.851795" xlink:href="#C1_0_d8607b4584" y="211.600761"/>
    </g>
    <g clip-path="url(#p0fd2d587f1)">
     <use style="fill:#aec7e8;stroke:#aec7e8;" x="165.896674" xlink:href="#C1_0_d8607b4584" y="297.85686"/>
    </g>
    <g clip-path="url(#p0fd2d587f1)">
     <use style="fill:#ffbb78;stroke:#ffbb78;" x="86.808944" xlink:href="#C1_0_d8607b4584" y="93.951619"/>
    </g>
    <g clip-path="url(#p0fd2d587f1)">
     <use style="fill:#d62728;stroke:#d62728;" x="217.937714" xlink:href="#C1_0_d8607b4584" y="131.456056"/>
    </g>
    <g clip-path="url(#p0fd2d587f1)">
     <use style="fill:#2ca02c;stroke:#2ca02c;" x="57.15758" xlink:href="#C1_0_d8607b4584" y="166.950318"/>
    </g>
    <g clip-path="url(#p0fd2d587f1)">
     <use style="fill:#98df8a;stroke:#98df8a;" x="180.520967" xlink:href="#C1_0_d8607b4584" y="221.096558"/>
    </g>
   </g>
  </g>
 </g>
 <defs>
  <clipPath id="p0fd2d587f1">
   <rect height="326.16" width="334.8" x="28.104688" y="-0"/>
  </clipPath>
 </defs>
</svg>
