<?xml version="1.0" encoding="utf-8" standalone="no"?>
<!DOCTYPE svg PUBLIC "-//W3C//DTD SVG 1.1//EN"
  "http://www.w3.org/Graphics/SVG/1.1/DTD/svg11.dtd">
<!-- Created with matplotlib (https://matplotlib.org/) -->
<svg height="342.838125pt" version="1.1" viewBox="0 0 369.419777 342.838125" width="369.419777pt" xmlns="http://www.w3.org/2000/svg" xmlns:xlink="http://www.w3.org/1999/xlink">
 <defs>
  <style type="text/css">
*{stroke-linecap:butt;stroke-linejoin:round;}
  </style>
 </defs>
 <g id="figure_1">
  <g id="patch_1">
   <path d="M 0 342.838125 
L 369.419777 342.838125 
L 369.419777 0 
L 0 0 
z
" style="fill:none;"/>
  </g>
  <g id="axes_1">
   <g id="patch_2">
    <path clip-path="url(#p72d25cff7b)" d="M 255.713463 57.278374 
Q 222.071133 36.983153 185.927673 30.159351 
" style="fill:none;stroke:#000000;stroke-linecap:round;stroke-opacity:0.998357;stroke-width:2;"/>
    <path clip-path="url(#p72d25cff7b)" d="M 189.487194 32.866713 
L 185.927673 30.159351 
L 190.229275 28.936151 
L 189.487194 32.866713 
z
" style="fill-opacity:0.998357;stroke:#000000;stroke-linecap:round;stroke-opacity:0.998357;stroke-width:2;"/>
   </g>
   <g id="patch_3">
    <path clip-path="url(#p72d25cff7b)" d="M 175.192651 28.30314 
Q 189.886209 77.475695 219.612325 116.177193 
" style="fill:none;stroke:#000000;stroke-linecap:round;stroke-opacity:0.999178;stroke-width:2;"/>
    <path clip-path="url(#p72d25cff7b)" d="M 218.761886 111.786663 
L 219.612325 116.177193 
L 215.589638 114.223226 
L 218.761886 111.786663 
z
" style="fill-opacity:0.999178;stroke:#000000;stroke-linecap:round;stroke-opacity:0.999178;stroke-width:2;"/>
   </g>
   <g id="patch_4">
    <path clip-path="url(#p72d25cff7b)" d="M 57.157581 201.836821 
Q 109.505435 259.604524 177.082342 293.097485 
" style="fill:none;stroke:#000000;stroke-linecap:round;stroke-opacity:0.99894;stroke-width:2;"/>
    <path clip-path="url(#p72d25cff7b)" d="M 174.386539 289.529201 
L 177.082342 293.097485 
L 172.610233 293.113156 
L 174.386539 289.529201 
z
" style="fill-opacity:0.99894;stroke:#000000;stroke-linecap:round;stroke-opacity:0.99894;stroke-width:2;"/>
   </g>
   <g id="patch_5">
    <path clip-path="url(#p72d25cff7b)" d="M 186.883937 297.85686 
Q 243.369572 188.304265 254.743327 68.131557 
" style="fill:none;stroke:#000000;stroke-linecap:round;stroke-width:2;"/>
    <path clip-path="url(#p72d25cff7b)" d="M 252.375329 71.925313 
L 254.743327 68.131557 
L 256.357533 72.302209 
L 252.375329 71.925313 
z
" style="stroke:#000000;stroke-linecap:round;stroke-width:2;"/>
   </g>
   <g id="patch_6">
    <path clip-path="url(#p72d25cff7b)" d="M 226.354338 124.739649 
Q 277.321574 127.484671 323.519594 112.652692 
" style="fill:none;stroke:#000000;stroke-linecap:round;stroke-opacity:0.99;stroke-width:2;"/>
    <path clip-path="url(#p72d25cff7b)" d="M 319.099694 111.971164 
L 323.519594 112.652692 
L 320.322432 115.779695 
L 319.099694 111.971164 
z
" style="fill-opacity:0.99;stroke:#000000;stroke-linecap:round;stroke-opacity:0.99;stroke-width:2;"/>
   </g>
   <g id="patch_7">
    <path clip-path="url(#p72d25cff7b)" d="M 137.364795 247.959086 
Q 139.613191 208.48954 128.688284 173.112827 
" style="fill:none;stroke:#000000;stroke-linecap:round;stroke-opacity:0.499699;stroke-width:2;"/>
    <path clip-path="url(#p72d25cff7b)" d="M 127.957598 177.524867 
L 128.688284 173.112827 
L 131.779504 176.344599 
L 127.957598 177.524867 
z
" style="fill-opacity:0.499699;stroke:#000000;stroke-linecap:round;stroke-opacity:0.499699;stroke-width:2;"/>
   </g>
   <g id="patch_8">
    <path clip-path="url(#p72d25cff7b)" d="M 125.314727 162.753471 
Q 91.447859 174.09918 65.538333 194.880685 
" style="fill:none;stroke:#000000;stroke-linecap:round;stroke-opacity:0.999277;stroke-width:2;"/>
    <path clip-path="url(#p72d25cff7b)" d="M 69.910007 193.938104 
L 65.538333 194.880685 
L 67.407272 190.817796 
L 69.910007 193.938104 
z
" style="fill-opacity:0.999277;stroke:#000000;stroke-linecap:round;stroke-opacity:0.999277;stroke-width:2;"/>
   </g>
   <g id="patch_9">
    <path clip-path="url(#p72d25cff7b)" d="M 125.314727 162.753471 
Q 125.314727 162.753471 125.314727 162.753471 
" style="fill:none;stroke:#000000;stroke-linecap:round;stroke-opacity:0.499699;stroke-width:2;"/>
   </g>
   <g id="patch_10">
    <path clip-path="url(#p72d25cff7b)" d="M 147.263652 96.599813 
Q 128.305523 167.097838 136.070381 237.137203 
" style="fill:none;stroke:#000000;stroke-linecap:round;stroke-opacity:0.999518;stroke-width:2;"/>
    <path clip-path="url(#p72d25cff7b)" d="M 137.617445 232.941182 
L 136.070381 237.137203 
L 133.641803 233.381939 
L 137.617445 232.941182 
z
" style="fill-opacity:0.999518;stroke:#000000;stroke-linecap:round;stroke-opacity:0.999518;stroke-width:2;"/>
   </g>
   <g id="patch_11">
    <path clip-path="url(#p72d25cff7b)" d="M 333.851794 109.197234 
Q 264.156464 139.26213 212.058813 190.922009 
" style="fill:none;stroke:#000000;stroke-linecap:round;stroke-opacity:0.704292;stroke-width:2;"/>
    <path clip-path="url(#p72d25cff7b)" d="M 216.307383 189.525708 
L 212.058813 190.922009 
L 213.490914 186.685373 
L 216.307383 189.525708 
z
" style="fill-opacity:0.704292;stroke:#000000;stroke-linecap:round;stroke-opacity:0.704292;stroke-width:2;"/>
   </g>
   <g id="patch_12">
    <path clip-path="url(#p72d25cff7b)" d="M 258.187155 281.599346 
Q 222.682149 182.090152 154.514653 104.72905 
" style="fill:none;stroke:#000000;stroke-linecap:round;stroke-opacity:0.998077;stroke-width:2;"/>
    <path clip-path="url(#p72d25cff7b)" d="M 155.658563 109.052414 
L 154.514653 104.72905 
L 158.65969 106.407941 
L 155.658563 109.052414 
z
" style="fill-opacity:0.998077;stroke:#000000;stroke-linecap:round;stroke-opacity:0.998077;stroke-width:2;"/>
   </g>
   <g id="patch_13">
    <path clip-path="url(#p72d25cff7b)" d="M 204.38869 198.655136 
Q 221.390676 241.470739 250.739488 273.648614 
" style="fill:none;stroke:#000000;stroke-linecap:round;stroke-opacity:0.999282;stroke-width:2;"/>
    <path clip-path="url(#p72d25cff7b)" d="M 249.521643 269.345493 
L 250.739488 273.648614 
L 246.566284 272.041018 
L 249.521643 269.345493 
z
" style="fill-opacity:0.999282;stroke:#000000;stroke-linecap:round;stroke-opacity:0.999282;stroke-width:2;"/>
   </g>
   <g id="patch_14">
    <path clip-path="url(#p72d25cff7b)" d="M 285.193917 213.682463 
Q 285.193917 213.682463 285.193917 213.682463 
" style="fill:none;stroke:#000000;stroke-linecap:round;stroke-opacity:0.983734;stroke-width:2;"/>
   </g>
   <g id="patch_15">
    <path clip-path="url(#p72d25cff7b)" d="M 285.193917 213.682463 
Q 296.923702 191.380474 300.242988 168.906414 
" style="fill:none;stroke:#000000;stroke-linecap:round;stroke-opacity:0.258906;stroke-width:2;"/>
    <path clip-path="url(#p72d25cff7b)" d="M 297.680015 172.57127 
L 300.242988 168.906414 
L 301.637089 173.155706 
L 297.680015 172.57127 
z
" style="fill-opacity:0.258906;stroke:#000000;stroke-linecap:round;stroke-opacity:0.258906;stroke-width:2;"/>
   </g>
   <g id="patch_16">
    <path clip-path="url(#p72d25cff7b)" d="M 301.587991 158.095897 
Q 253.189149 167.80193 213.536446 192.741311 
" style="fill:none;stroke:#000000;stroke-linecap:round;stroke-opacity:0.285985;stroke-width:2;"/>
    <path clip-path="url(#p72d25cff7b)" d="M 217.987218 192.304706 
L 213.536446 192.741311 
L 215.857625 188.91873 
L 217.987218 192.304706 
z
" style="fill-opacity:0.285985;stroke:#000000;stroke-linecap:round;stroke-opacity:0.285985;stroke-width:2;"/>
   </g>
   <g id="patch_17">
    <path clip-path="url(#p72d25cff7b)" d="M 301.587991 158.095897 
Q 301.587991 158.095897 301.587991 158.095897 
" style="fill:none;stroke:#000000;stroke-linecap:round;stroke-opacity:0.599237;stroke-width:2;"/>
   </g>
   <g id="PathCollection_1">
    <defs>
     <path d="M 0 7.905694 
C 2.096615 7.905694 4.10764 7.0727 5.59017 5.59017 
C 7.0727 4.10764 7.905694 2.096615 7.905694 0 
C 7.905694 -2.096615 7.0727 -4.10764 5.59017 -5.59017 
C 4.10764 -7.0727 2.096615 -7.905694 0 -7.905694 
C -2.096615 -7.905694 -4.10764 -7.0727 -5.59017 -5.59017 
C -7.0727 -4.10764 -7.905694 -2.096615 -7.905694 0 
C -7.905694 2.096615 -7.0727 4.10764 -5.59017 5.59017 
C -4.10764 7.0727 -2.096615 7.905694 0 7.905694 
z
" id="C0_0_2b5922f255"/>
    </defs>
    <g clip-path="url(#p72d25cff7b)">
     <use style="fill:#723c61;stroke:#723c61;" x="255.713463" xlink:href="#C0_0_2b5922f255" y="57.278374"/>
    </g>
    <g clip-path="url(#p72d25cff7b)">
     <use style="fill:#103c5a;stroke:#103c5a;" x="175.192651" xlink:href="#C0_0_2b5922f255" y="28.30314"/>
    </g>
    <g clip-path="url(#p72d25cff7b)">
     <use style="fill:#462b26;stroke:#462b26;" x="57.157581" xlink:href="#C0_0_2b5922f255" y="201.836821"/>
    </g>
    <g clip-path="url(#p72d25cff7b)">
     <use style="fill:#4c7045;stroke:#4c7045;" x="186.883937" xlink:href="#C0_0_2b5922f255" y="297.85686"/>
    </g>
    <g clip-path="url(#p72d25cff7b)">
     <use style="fill:#804007;stroke:#804007;" x="226.354338" xlink:href="#C0_0_2b5922f255" y="124.739649"/>
    </g>
    <g clip-path="url(#p72d25cff7b)">
     <use style="fill:#6b1414;stroke:#6b1414;" x="137.364795" xlink:href="#C0_0_2b5922f255" y="247.959086"/>
    </g>
    <g clip-path="url(#p72d25cff7b)">
     <use style="fill:#4a345e;stroke:#4a345e;" x="125.314727" xlink:href="#C0_0_2b5922f255" y="162.753471"/>
    </g>
    <g clip-path="url(#p72d25cff7b)">
     <use style="fill:#805e3c;stroke:#805e3c;" x="147.263652" xlink:href="#C0_0_2b5922f255" y="96.599813"/>
    </g>
    <g clip-path="url(#p72d25cff7b)">
     <use style="fill:#165016;stroke:#165016;" x="333.851794" xlink:href="#C0_0_2b5922f255" y="109.197234"/>
    </g>
    <g clip-path="url(#p72d25cff7b)">
     <use style="fill:#804c4b;stroke:#804c4b;" x="258.187155" xlink:href="#C0_0_2b5922f255" y="281.599346"/>
    </g>
    <g clip-path="url(#p72d25cff7b)">
     <use style="fill:#7c5b69;stroke:#7c5b69;" x="204.38869" xlink:href="#C0_0_2b5922f255" y="198.655136"/>
    </g>
    <g clip-path="url(#p72d25cff7b)">
     <use style="fill:#576474;stroke:#576474;" x="285.193917" xlink:href="#C0_0_2b5922f255" y="213.682463"/>
    </g>
    <g clip-path="url(#p72d25cff7b)">
     <use style="fill:#62586a;stroke:#62586a;" x="301.587991" xlink:href="#C0_0_2b5922f255" y="158.095897"/>
    </g>
   </g>
   <g id="PathCollection_2">
    <defs>
     <path d="M 0 6.123724 
C 1.624031 6.123724 3.181764 5.47849 4.330127 4.330127 
C 5.47849 3.181764 6.123724 1.624031 6.123724 0 
C 6.123724 -1.624031 5.47849 -3.181764 4.330127 -4.330127 
C 3.181764 -5.47849 1.624031 -6.123724 0 -6.123724 
C -1.624031 -6.123724 -3.181764 -5.47849 -4.330127 -4.330127 
C -5.47849 -3.181764 -6.123724 -1.624031 -6.123724 0 
C -6.123724 1.624031 -5.47849 3.181764 -4.330127 4.330127 
C -3.181764 5.47849 -1.624031 6.123724 0 6.123724 
z
" id="C1_0_4f0d75cc00"/>
    </defs>
    <g clip-path="url(#p72d25cff7b)">
     <use style="fill:#e377c2;stroke:#e377c2;" x="255.713463" xlink:href="#C1_0_4f0d75cc00" y="57.278374"/>
    </g>
    <g clip-path="url(#p72d25cff7b)">
     <use style="fill:#1f77b4;stroke:#1f77b4;" x="175.192651" xlink:href="#C1_0_4f0d75cc00" y="28.30314"/>
    </g>
    <g clip-path="url(#p72d25cff7b)">
     <use style="fill:#8c564b;stroke:#8c564b;" x="57.157581" xlink:href="#C1_0_4f0d75cc00" y="201.836821"/>
    </g>
    <g clip-path="url(#p72d25cff7b)">
     <use style="fill:#98df8a;stroke:#98df8a;" x="186.883937" xlink:href="#C1_0_4f0d75cc00" y="297.85686"/>
    </g>
    <g clip-path="url(#p72d25cff7b)">
     <use style="fill:#ff7f0e;stroke:#ff7f0e;" x="226.354338" xlink:href="#C1_0_4f0d75cc00" y="124.739649"/>
    </g>
    <g clip-path="url(#p72d25cff7b)">
     <use style="fill:#d62728;stroke:#d62728;" x="137.364795" xlink:href="#C1_0_4f0d75cc00" y="247.959086"/>
    </g>
    <g clip-path="url(#p72d25cff7b)">
     <use style="fill:#9467bd;stroke:#9467bd;" x="125.314727" xlink:href="#C1_0_4f0d75cc00" y="162.753471"/>
    </g>
    <g clip-path="url(#p72d25cff7b)">
     <use style="fill:#ffbb78;stroke:#ffbb78;" x="147.263652" xlink:href="#C1_0_4f0d75cc00" y="96.599813"/>
    </g>
    <g clip-path="url(#p72d25cff7b)">
     <use style="fill:#2ca02c;stroke:#2ca02c;" x="333.851794" xlink:href="#C1_0_4f0d75cc00" y="109.197234"/>
    </g>
    <g clip-path="url(#p72d25cff7b)">
     <use style="fill:#ff9896;stroke:#ff9896;" x="258.187155" xlink:href="#C1_0_4f0d75cc00" y="281.599346"/>
    </g>
    <g clip-path="url(#p72d25cff7b)">
     <use style="fill:#f7b6d2;stroke:#f7b6d2;" x="204.38869" xlink:href="#C1_0_4f0d75cc00" y="198.655136"/>
    </g>
    <g clip-path="url(#p72d25cff7b)">
     <use style="fill:#aec7e8;stroke:#aec7e8;" x="285.193917" xlink:href="#C1_0_4f0d75cc00" y="213.682463"/>
    </g>
    <g clip-path="url(#p72d25cff7b)">
     <use style="fill:#c5b0d5;stroke:#c5b0d5;" x="301.587991" xlink:href="#C1_0_4f0d75cc00" y="158.095897"/>
    </g>
   </g>
  </g>
 </g>
 <defs>
  <clipPath id="p72d25cff7b">
   <rect height="326.16" width="334.8" x="28.104688" y="-0"/>
  </clipPath>
 </defs>
</svg>
