<?xml version="1.0" encoding="utf-8" standalone="no"?>
<!DOCTYPE svg PUBLIC "-//W3C//DTD SVG 1.1//EN"
  "http://www.w3.org/Graphics/SVG/1.1/DTD/svg11.dtd">
<!-- Created with matplotlib (https://matplotlib.org/) -->
<svg height="832.078125pt" version="1.1" viewBox="0 0 858.742188 832.078125" width="858.742188pt" xmlns="http://www.w3.org/2000/svg" xmlns:xlink="http://www.w3.org/1999/xlink">
 <defs>
  <style type="text/css">
*{stroke-linecap:butt;stroke-linejoin:round;}
  </style>
 </defs>
 <g id="figure_1">
  <g id="patch_1">
   <path d="M -0 832.078125 
L 858.742187 832.078125 
L 858.742187 0 
L -0 0 
z
" style="fill:none;"/>
  </g>
  <g id="axes_1">
   <g id="patch_2">
    <path clip-path="url(#pccb7db6590)" d="M 400.633882 232.050068 
L 397.852181 209.420626 
L 407.660689 212.848781 
L 409.875754 206.834002 
L 409.954538 206.861538 
L 407.739472 212.876316 
L 417.54798 216.304471 
z
" style="fill:#e41a1c;stroke:#e41a1c;stroke-linejoin:miter;stroke-width:4;"/>
   </g>
   <g id="patch_3">
    <path clip-path="url(#pccb7db6590)" d="M 399.879657 501.019433 
L 423.048832 497.861355 
L 419.72504 507.482834 
L 424.052879 508.90174 
L 424.026182 508.979021 
L 419.698343 507.560115 
L 416.374551 517.181595 
z
" style="fill:#984ea3;stroke:#984ea3;stroke-linejoin:miter;stroke-width:4;"/>
   </g>
   <g id="patch_4">
    <path clip-path="url(#pccb7db6590)" d="M 552.842638 472.626702 
L 560.274481 451.016128 
L 567.631781 458.205391 
L 571.247367 454.693805 
L 571.306462 454.75155 
L 567.690875 458.263136 
L 575.048175 465.4524 
z
" style="fill:#377eb8;stroke:#377eb8;stroke-linejoin:miter;stroke-width:4;"/>
   </g>
   <g id="patch_5">
    <path clip-path="url(#pccb7db6590)" d="M 498.288414 236.941328 
L 516.997959 250.624237 
L 507.675342 255.160126 
L 513.580409 266.678489 
L 513.505529 266.714922 
L 507.600462 255.196559 
L 498.277844 259.732448 
z
" style="fill:#377eb8;stroke:#377eb8;stroke-linejoin:miter;stroke-width:4;"/>
   </g>
   <g id="line2d_1">
    <path clip-path="url(#pccb7db6590)" d="M 475.640545 192.814046 
L 472.606338 187.061674 
L 470.347644 180.833418 
L 468.780726 174.640703 
L 467.071241 171.778297 
L 465.639206 169.696576 
L 464.648657 167.702042 
L 463.740371 165.513798 
L 463.047976 163.576708 
L 462.40336 163.038813 
L 461.596156 163.309977 
L 460.755156 163.531565 
L 460.274717 162.739256 
L 459.831049 162.507435 
L 459.548945 162.942014 
L 459.02057 164.496703 
L 458.394421 166.246949 
L 457.790238 167.527029 
L 457.379805 167.635062 
L 457.028946 166.970051 
L 456.529866 166.293111 
L 455.886857 165.638858 
L 455.293869 165.086143 
L 455.086547 164.566484 
L 454.923099 164.188485 
L 454.736687 163.761301 
L 454.53059 163.234149 
L 454.413807 162.646626 
L 454.259334 162.011182 
L 454.037048 161.189147 
L 453.9964 160.310083 
L 454.068145 159.556961 
L 454.10929 158.906793 
L 453.999466 158.490648 
L 453.711985 158.403106 
L 453.535107 158.324272 
L 453.339755 158.244274 
L 453.283135 157.902559 
L 453.190969 157.614511 
L 453.039292 157.334129 
L 452.866632 157.193402 
L 452.706538 157.121865 
L 452.488024 157.108071 
L 452.41856 156.583621 
L 452.802927 154.600806 
L 453.033556 153.330817 
L 452.90712 153.417786 
L 452.757742 153.536464 
L 452.694954 153.617102 
L 452.72001 153.653413 
L 452.680558 153.690691 
L 452.543473 153.715188 
L 452.334354 153.800089 
L 452.096973 153.949546 
L 451.93228 154.1331 
L 451.733213 154.602694 
L 451.517509 155.073999 
L 451.280939 155.539298 
L 451.067424 155.808315 
L 450.874971 156.121459 
L 450.680267 156.416827 
L 450.532473 156.491821 
L 450.363642 156.939836 
L 450.164014 157.728649 
L 449.928926 158.569261 
L 449.688277 159.344724 
L 449.520163 159.544436 
L 449.192212 159.930049 
L 449.150028 159.820183 
L 449.413707 159.010588 
L 449.534789 158.581562 
L 449.148367 159.652878 
L 448.647226 160.612323 
L 448.029796 161.448478 
L 447.454236 162.206506 
L 446.916944 163.092985 
L 446.380659 163.914804 
L 445.583135 165.624638 
L 444.645836 168.070121 
L 443.924831 168.990527 
L 443.243317 169.94881 
L 442.669989 170.228241 
L 442.345291 170.010891 
L 441.940882 169.664286 
L 440.855766 170.725018 
L 439.532989 171.819149 
L 438.236211 172.625349 
L 436.889201 173.935026 
L 435.662615 175.174091 
L 434.06827 176.53404 
L 432.030965 178.386517 
L 428.977939 179.216675 
L 425.810242 180.447041 
L 422.551371 182.068236 
L 419.914207 186.100782 
L 417.161174 190.406728 
L 413.987144 195.327438 
L 412.101175 200.862031 
L 409.915146 206.84777 
L 407.70008 212.862548 
" style="fill:none;stroke:#e41a1c;stroke-linecap:square;stroke-width:6;"/>
   </g>
   <g id="line2d_2">
    <path clip-path="url(#pccb7db6590)" d="M 538.87956 485.103161 
L 537.331098 488.191601 
L 535.780253 491.295343 
L 534.176004 494.367799 
L 532.803228 496.453271 
L 531.638814 498.305456 
L 530.535936 500.126518 
L 529.565467 501.752041 
L 528.70764 503.023071 
L 527.780656 504.467009 
L 526.801429 506.235277 
L 525.888049 507.98344 
L 525.133504 509.393733 
L 524.567936 510.285361 
L 524.112558 510.952661 
L 523.665861 511.637867 
L 523.278129 512.254913 
L 522.862757 512.815406 
L 522.337237 513.517154 
L 521.845266 514.187242 
L 521.340563 514.836178 
L 520.853264 515.446715 
L 520.441594 515.923928 
L 520.065734 516.318079 
L 519.72479 516.641009 
L 519.419527 516.965079 
L 519.153585 517.256495 
L 518.87774 517.546228 
L 518.579694 517.834758 
L 518.314741 518.186082 
L 518.021154 518.549133 
L 517.598612 519.03518 
L 517.10724 519.54858 
L 516.611251 520.037928 
L 516.069929 520.501288 
L 515.570775 520.883832 
L 515.11073 521.192102 
L 514.671444 521.543789 
L 514.257672 521.87959 
L 513.855577 522.216054 
L 513.449558 522.516361 
L 513.008682 522.746434 
L 512.544145 522.96026 
L 512.05313 523.169495 
L 511.550951 523.41499 
L 511.062794 523.731897 
L 510.529584 524.087825 
L 509.972303 524.451123 
L 509.405025 524.788768 
L 508.815751 525.090416 
L 508.236506 525.32685 
L 507.678566 525.532316 
L 507.114969 525.759384 
L 506.527643 525.963413 
L 505.953369 526.166084 
L 505.347604 526.342549 
L 504.70293 526.521189 
L 504.053439 526.679958 
L 503.391366 526.79807 
L 502.680509 526.862581 
L 501.966241 526.907731 
L 501.263626 526.925627 
L 500.528872 526.9444 
L 499.762171 526.93256 
L 498.998232 526.920585 
L 498.185791 526.87915 
L 497.333174 526.830017 
L 496.321703 526.748658 
L 495.297879 526.638251 
L 494.280711 526.575785 
L 493.269065 526.561446 
L 492.186702 526.581561 
L 491.083087 526.625676 
L 489.974804 526.611558 
L 488.77072 526.466197 
L 487.457218 526.286643 
L 486.067511 526.080189 
L 484.615282 525.855869 
L 483.059806 525.718467 
L 481.364624 525.690075 
L 479.602891 525.540731 
L 477.824052 525.405576 
L 475.929437 525.168468 
L 473.957297 524.882635 
L 471.899034 524.475241 
L 469.666554 523.875015 
L 467.239303 523.171061 
L 464.694322 522.416471 
L 461.87477 521.564452 
L 458.978752 520.368746 
L 456.070129 518.996945 
L 452.901481 517.780209 
L 449.211152 516.704225 
L 445.232005 515.565292 
L 441.200762 514.310525 
L 436.985267 513.163702 
L 432.731303 511.790957 
L 428.368435 510.360255 
L 424.03953 508.940381 
L 419.711691 507.521475 
" style="fill:none;stroke:#984ea3;stroke-linecap:square;stroke-width:6;"/>
   </g>
   <g id="line2d_3">
    <path clip-path="url(#pccb7db6590)" d="M 274.5751 423.751432 
L 274.812586 424.015555 
L 275.042078 424.282552 
L 275.180616 424.62875 
L 275.072016 425.191549 
L 274.606387 425.706211 
L 273.828704 426.336169 
L 272.648755 426.950841 
L 271.137459 427.704112 
L 268.943181 429.121045 
L 265.517058 431.149688 
L 262.145021 433.095967 
L 258.953014 434.807241 
L 255.808819 436.154707 
L 252.99272 436.751506 
L 250.667928 437.049804 
L 248.794537 437.002877 
L 246.952339 436.780062 
L 245.839392 436.566834 
L 246.989204 436.507244 
L 248.978222 436.43027 
L 251.447207 436.290801 
L 253.836712 436.22022 
L 257.009839 435.33174 
L 260.874322 433.994861 
L 265.191918 432.834626 
L 269.924388 432.130924 
L 275.741649 431.41978 
L 283.184916 429.488569 
L 291.003624 428.028772 
L 298.413011 428.061249 
L 306.484485 427.850476 
L 317.581102 427.825833 
L 328.495685 427.632556 
L 339.195993 427.411167 
L 350.564338 427.254978 
L 361.088693 426.902102 
L 370.224509 426.400447 
L 381.268713 425.380435 
L 392.834562 424.226223 
L 404.94036 424.498673 
L 418.638275 424.956151 
L 433.20572 424.820747 
L 447.090936 424.7226 
L 460.630831 423.89733 
L 473.406044 423.11635 
L 482.642537 423.194199 
L 491.746534 422.807855 
L 503.984686 422.11613 
L 515.088683 422.095999 
L 525.307577 422.685741 
L 535.24828 422.819475 
L 543.867214 422.602287 
L 552.818393 422.374886 
L 561.810779 422.767426 
L 570.483245 423.614146 
L 578.116707 423.722698 
L 585.014813 423.939321 
L 592.299039 424.883855 
L 599.940824 425.383094 
L 606.775434 425.42761 
L 613.322539 426.09544 
L 618.407871 426.71574 
L 622.083679 426.653054 
L 624.901105 426.708072 
L 627.853596 427.082644 
L 632.332052 428.284099 
L 634.986338 428.748333 
L 635.140424 429.240266 
L 634.910352 428.749903 
L 634.535042 428.224015 
L 634.709492 428.456902 
L 634.427626 428.607978 
L 634.161848 428.761597 
L 634.022872 428.987438 
L 633.986941 429.24967 
L 632.834629 429.427116 
L 630.942082 429.685198 
L 628.688121 429.966489 
L 626.449876 430.154172 
L 624.499301 430.52731 
L 622.467994 430.862741 
L 620.363121 431.257592 
L 618.028091 431.753704 
L 615.571492 432.318681 
L 612.800714 432.825903 
L 610.153516 433.422633 
L 607.467608 434.286852 
L 604.634313 434.861816 
L 601.712308 435.488711 
L 598.749106 436.100923 
L 595.764587 436.945779 
L 592.765828 437.936634 
L 589.395434 439.518903 
L 585.978054 441.49561 
L 582.340666 444.341443 
L 578.665396 447.611812 
L 574.895714 451.221174 
L 571.276914 454.722678 
L 567.661328 458.234264 
" style="fill:none;stroke:#377eb8;stroke-dasharray:6,9.9;stroke-dashoffset:0;stroke-width:6;"/>
   </g>
   <g id="line2d_4">
    <path clip-path="url(#pccb7db6590)" d="M 246.229686 427.611679 
L 246.039222 428.282622 
L 245.81142 428.962433 
L 245.56102 429.993253 
L 246.588604 432.523097 
L 248.085916 434.980958 
L 246.610818 435.935763 
L 241.157207 435.525025 
L 235.309148 435.380809 
L 231.39672 435.280918 
L 228.519483 434.611311 
L 225.965058 433.335929 
L 224.627986 435.970663 
L 223.117095 438.05191 
L 222.085596 439.315121 
L 221.968535 438.93024 
L 222.222306 437.406433 
L 225.663112 436.931933 
L 231.286622 437.592131 
L 237.478411 438.740636 
L 237.64327 436.402581 
L 237.206906 432.879496 
L 236.210302 429.068156 
L 241.323039 430.857405 
L 245.557619 432.618425 
L 248.734309 432.817852 
L 252.643042 431.184655 
L 259.806603 429.491341 
L 268.436921 428.606738 
L 276.847004 427.713947 
L 285.525068 427.966018 
L 295.876377 428.129289 
L 308.90825 427.293569 
L 322.549392 425.930859 
L 335.532804 425.049392 
L 344.694897 425.329872 
L 354.460407 425.360033 
L 366.181092 424.775959 
L 378.358349 424.082561 
L 390.348261 423.340511 
L 402.221016 422.537015 
L 411.398062 421.399018 
L 420.659013 419.750793 
L 430.708969 418.286825 
L 442.738905 416.8719 
L 457.971972 415.992822 
L 472.15385 415.270827 
L 485.725496 414.422446 
L 499.438684 413.630889 
L 514.10572 412.673151 
L 527.661723 411.625064 
L 540.148792 410.517508 
L 551.221479 409.330507 
L 562.316036 408.241977 
L 572.598242 407.189994 
L 581.760231 406.265831 
L 589.038579 405.538034 
L 595.203699 404.612849 
L 600.088169 403.446571 
L 603.44234 402.054166 
L 605.74548 400.681985 
L 607.139835 399.421279 
L 607.848234 398.149117 
L 608.990081 397.099345 
L 609.779898 395.964268 
L 610.502267 394.521239 
L 610.965509 393.03989 
L 610.308453 391.667163 
L 609.747343 390.006987 
L 609.272751 387.971274 
L 608.39494 386.128941 
L 607.33697 384.224521 
L 605.925737 382.161923 
L 603.850333 380.139164 
L 601.412591 378.112806 
L 598.237708 375.90557 
L 594.631878 373.832854 
L 591.047759 371.847237 
L 587.776064 369.930335 
L 584.407252 367.66457 
L 580.567722 364.690023 
L 576.305047 361.111018 
L 572.470105 357.89855 
L 568.792737 354.741757 
L 565.425676 351.706752 
L 562.304431 348.993949 
L 559.190994 346.007416 
L 555.976065 342.838013 
L 552.648673 339.361085 
L 549.337504 335.573562 
L 545.91538 331.054874 
L 542.228313 325.476049 
L 538.337489 319.218359 
L 534.509221 312.869562 
L 530.322948 305.329789 
L 526.287821 296.942859 
L 522.589691 287.752908 
L 518.689945 277.848835 
L 513.542969 266.696706 
L 507.637902 255.178343 
" style="fill:none;stroke:#377eb8;stroke-dasharray:22.2,9.6;stroke-dashoffset:0;stroke-width:6;"/>
   </g>
   <g id="legend_1">
    <g id="patch_6">
     <path d="M 807.495312 66.7125 
L 851.742188 66.7125 
Q 853.742188 66.7125 853.742188 64.7125 
L 853.742188 7 
Q 853.742188 5 851.742188 5 
L 807.495312 5 
Q 805.495312 5 805.495312 7 
L 805.495312 64.7125 
Q 805.495312 66.7125 807.495312 66.7125 
z
" style="fill:#ffffff;opacity:0.8;stroke:#cccccc;stroke-linejoin:miter;"/>
    </g>
    <g id="line2d_5"/>
    <g id="line2d_6">
     <defs>
      <path d="M 0 3 
C 0.795609 3 1.55874 2.683901 2.12132 2.12132 
C 2.683901 1.55874 3 0.795609 3 0 
C 3 -0.795609 2.683901 -1.55874 2.12132 -2.12132 
C 1.55874 -2.683901 0.795609 -3 0 -3 
C -0.795609 -3 -1.55874 -2.683901 -2.12132 -2.12132 
C -2.683901 -1.55874 -3 -0.795609 -3 0 
C -3 0.795609 -2.683901 1.55874 -2.12132 2.12132 
C -1.55874 2.683901 -0.795609 3 0 3 
z
" id="m24448eae58" style="stroke:#377eb8;"/>
     </defs>
     <g>
      <use style="fill:#377eb8;stroke:#377eb8;" x="819.495312" xlink:href="#m24448eae58" y="13.098437"/>
     </g>
    </g>
    <g id="text_1">
     <!-- t -->
     <defs>
      <path d="M 18.3125 70.21875 
L 18.3125 54.6875 
L 36.8125 54.6875 
L 36.8125 47.703125 
L 18.3125 47.703125 
L 18.3125 18.015625 
Q 18.3125 11.328125 20.140625 9.421875 
Q 21.96875 7.515625 27.59375 7.515625 
L 36.8125 7.515625 
L 36.8125 0 
L 27.59375 0 
Q 17.1875 0 13.234375 3.875 
Q 9.28125 7.765625 9.28125 18.015625 
L 9.28125 47.703125 
L 2.6875 47.703125 
L 2.6875 54.6875 
L 9.28125 54.6875 
L 9.28125 70.21875 
z
" id="DejaVuSans-116"/>
     </defs>
     <g transform="translate(837.495312 16.598437)scale(0.1 -0.1)">
      <use xlink:href="#DejaVuSans-116"/>
     </g>
    </g>
    <g id="line2d_7"/>
    <g id="line2d_8">
     <defs>
      <path d="M 0 3 
C 0.795609 3 1.55874 2.683901 2.12132 2.12132 
C 2.683901 1.55874 3 0.795609 3 0 
C 3 -0.795609 2.683901 -1.55874 2.12132 -2.12132 
C 1.55874 -2.683901 0.795609 -3 0 -3 
C -0.795609 -3 -1.55874 -2.683901 -2.12132 -2.12132 
C -2.683901 -1.55874 -3 -0.795609 -3 0 
C -3 0.795609 -2.683901 1.55874 -2.12132 2.12132 
C -1.55874 2.683901 -0.795609 3 0 3 
z
" id="m0839679eb2" style="stroke:#4daf4a;"/>
     </defs>
     <g>
      <use style="fill:#4daf4a;stroke:#4daf4a;" x="819.495312" xlink:href="#m0839679eb2" y="27.776562"/>
     </g>
    </g>
    <g id="text_2">
     <!-- k -->
     <defs>
      <path d="M 9.078125 75.984375 
L 18.109375 75.984375 
L 18.109375 31.109375 
L 44.921875 54.6875 
L 56.390625 54.6875 
L 27.390625 29.109375 
L 57.625 0 
L 45.90625 0 
L 18.109375 26.703125 
L 18.109375 0 
L 9.078125 0 
z
" id="DejaVuSans-107"/>
     </defs>
     <g transform="translate(837.495312 31.276562)scale(0.1 -0.1)">
      <use xlink:href="#DejaVuSans-107"/>
     </g>
    </g>
    <g id="line2d_9"/>
    <g id="line2d_10">
     <defs>
      <path d="M 0 3 
C 0.795609 3 1.55874 2.683901 2.12132 2.12132 
C 2.683901 1.55874 3 0.795609 3 0 
C 3 -0.795609 2.683901 -1.55874 2.12132 -2.12132 
C 1.55874 -2.683901 0.795609 -3 0 -3 
C -0.795609 -3 -1.55874 -2.683901 -2.12132 -2.12132 
C -2.683901 -1.55874 -3 -0.795609 -3 0 
C -3 0.795609 -2.683901 1.55874 -2.12132 2.12132 
C -1.55874 2.683901 -0.795609 3 0 3 
z
" id="m8b81af36ae" style="stroke:#984ea3;"/>
     </defs>
     <g>
      <use style="fill:#984ea3;stroke:#984ea3;" x="819.495312" xlink:href="#m8b81af36ae" y="42.454687"/>
     </g>
    </g>
    <g id="text_3">
     <!-- ey -->
     <defs>
      <path d="M 56.203125 29.59375 
L 56.203125 25.203125 
L 14.890625 25.203125 
Q 15.484375 15.921875 20.484375 11.0625 
Q 25.484375 6.203125 34.421875 6.203125 
Q 39.59375 6.203125 44.453125 7.46875 
Q 49.3125 8.734375 54.109375 11.28125 
L 54.109375 2.78125 
Q 49.265625 0.734375 44.1875 -0.34375 
Q 39.109375 -1.421875 33.890625 -1.421875 
Q 20.796875 -1.421875 13.15625 6.1875 
Q 5.515625 13.8125 5.515625 26.8125 
Q 5.515625 40.234375 12.765625 48.109375 
Q 20.015625 56 32.328125 56 
Q 43.359375 56 49.78125 48.890625 
Q 56.203125 41.796875 56.203125 29.59375 
z
M 47.21875 32.234375 
Q 47.125 39.59375 43.09375 43.984375 
Q 39.0625 48.390625 32.421875 48.390625 
Q 24.90625 48.390625 20.390625 44.140625 
Q 15.875 39.890625 15.1875 32.171875 
z
" id="DejaVuSans-101"/>
      <path d="M 32.171875 -5.078125 
Q 28.375 -14.84375 24.75 -17.8125 
Q 21.140625 -20.796875 15.09375 -20.796875 
L 7.90625 -20.796875 
L 7.90625 -13.28125 
L 13.1875 -13.28125 
Q 16.890625 -13.28125 18.9375 -11.515625 
Q 21 -9.765625 23.484375 -3.21875 
L 25.09375 0.875 
L 2.984375 54.6875 
L 12.5 54.6875 
L 29.59375 11.921875 
L 46.6875 54.6875 
L 56.203125 54.6875 
z
" id="DejaVuSans-121"/>
     </defs>
     <g transform="translate(837.495312 45.954687)scale(0.1 -0.1)">
      <use xlink:href="#DejaVuSans-101"/>
      <use x="61.523438" xlink:href="#DejaVuSans-121"/>
     </g>
    </g>
    <g id="line2d_11"/>
    <g id="line2d_12">
     <defs>
      <path d="M 0 3 
C 0.795609 3 1.55874 2.683901 2.12132 2.12132 
C 2.683901 1.55874 3 0.795609 3 0 
C 3 -0.795609 2.683901 -1.55874 2.12132 -2.12132 
C 1.55874 -2.683901 0.795609 -3 0 -3 
C -0.795609 -3 -1.55874 -2.683901 -2.12132 -2.12132 
C -2.683901 -1.55874 -3 -0.795609 -3 0 
C -3 0.795609 -2.683901 1.55874 -2.12132 2.12132 
C -1.55874 2.683901 -0.795609 3 0 3 
z
" id="m0f083e6fc2" style="stroke:#e41a1c;"/>
     </defs>
     <g>
      <use style="fill:#e41a1c;stroke:#e41a1c;" x="819.495312" xlink:href="#m0f083e6fc2" y="57.132812"/>
     </g>
    </g>
    <g id="text_4">
     <!-- ao -->
     <defs>
      <path d="M 34.28125 27.484375 
Q 23.390625 27.484375 19.1875 25 
Q 14.984375 22.515625 14.984375 16.5 
Q 14.984375 11.71875 18.140625 8.90625 
Q 21.296875 6.109375 26.703125 6.109375 
Q 34.1875 6.109375 38.703125 11.40625 
Q 43.21875 16.703125 43.21875 25.484375 
L 43.21875 27.484375 
z
M 52.203125 31.203125 
L 52.203125 0 
L 43.21875 0 
L 43.21875 8.296875 
Q 40.140625 3.328125 35.546875 0.953125 
Q 30.953125 -1.421875 24.3125 -1.421875 
Q 15.921875 -1.421875 10.953125 3.296875 
Q 6 8.015625 6 15.921875 
Q 6 25.140625 12.171875 29.828125 
Q 18.359375 34.515625 30.609375 34.515625 
L 43.21875 34.515625 
L 43.21875 35.40625 
Q 43.21875 41.609375 39.140625 45 
Q 35.0625 48.390625 27.6875 48.390625 
Q 23 48.390625 18.546875 47.265625 
Q 14.109375 46.140625 10.015625 43.890625 
L 10.015625 52.203125 
Q 14.9375 54.109375 19.578125 55.046875 
Q 24.21875 56 28.609375 56 
Q 40.484375 56 46.34375 49.84375 
Q 52.203125 43.703125 52.203125 31.203125 
z
" id="DejaVuSans-97"/>
      <path d="M 30.609375 48.390625 
Q 23.390625 48.390625 19.1875 42.75 
Q 14.984375 37.109375 14.984375 27.296875 
Q 14.984375 17.484375 19.15625 11.84375 
Q 23.34375 6.203125 30.609375 6.203125 
Q 37.796875 6.203125 41.984375 11.859375 
Q 46.1875 17.53125 46.1875 27.296875 
Q 46.1875 37.015625 41.984375 42.703125 
Q 37.796875 48.390625 30.609375 48.390625 
z
M 30.609375 56 
Q 42.328125 56 49.015625 48.375 
Q 55.71875 40.765625 55.71875 27.296875 
Q 55.71875 13.875 49.015625 6.21875 
Q 42.328125 -1.421875 30.609375 -1.421875 
Q 18.84375 -1.421875 12.171875 6.21875 
Q 5.515625 13.875 5.515625 27.296875 
Q 5.515625 40.765625 12.171875 48.375 
Q 18.84375 56 30.609375 56 
z
" id="DejaVuSans-111"/>
     </defs>
     <g transform="translate(837.495312 60.632812)scale(0.1 -0.1)">
      <use xlink:href="#DejaVuSans-97"/>
      <use x="61.279297" xlink:href="#DejaVuSans-111"/>
     </g>
    </g>
   </g>
  </g>
 </g>
 <defs>
  <clipPath id="pccb7db6590">
   <rect height="815.4" width="837" x="21.742188" y="0"/>
  </clipPath>
 </defs>
</svg>
