<?xml version="1.0" encoding="utf-8" standalone="no"?>
<!DOCTYPE svg PUBLIC "-//W3C//DTD SVG 1.1//EN"
  "http://www.w3.org/Graphics/SVG/1.1/DTD/svg11.dtd">
<!-- Created with matplotlib (https://matplotlib.org/) -->
<svg height="832.078125pt" version="1.1" viewBox="0 0 858.742188 832.078125" width="858.742188pt" xmlns="http://www.w3.org/2000/svg" xmlns:xlink="http://www.w3.org/1999/xlink">
 <defs>
  <style type="text/css">
*{stroke-linecap:butt;stroke-linejoin:round;}
  </style>
 </defs>
 <g id="figure_1">
  <g id="patch_1">
   <path d="M -0 832.078125 
L 858.742187 832.078125 
L 858.742187 0 
L -0 0 
z
" style="fill:none;"/>
  </g>
  <g id="axes_1">
   <g id="patch_2">
    <path clip-path="url(#pf375b633ad)" d="M 416.708721 561.778951 
L 425.069039 540.492775 
L 432.108723 547.977777 
L 432.535145 547.597157 
L 432.591689 547.657278 
L 432.165267 548.037898 
L 439.204951 555.5229 
z
" style="fill:#4daf4a;stroke:#4daf4a;stroke-linejoin:miter;stroke-width:4;"/>
   </g>
   <g id="patch_3">
    <path clip-path="url(#pf375b633ad)" d="M 404.882919 533.943721 
L 424.773145 521.944976 
L 425.717943 532.054895 
L 426.87245 531.9525 
L 426.880039 532.033704 
L 425.725531 532.136099 
L 426.670329 542.246017 
z
" style="fill:#e41a1c;stroke:#e41a1c;stroke-linejoin:miter;stroke-width:4;"/>
   </g>
   <g id="patch_4">
    <path clip-path="url(#pf375b633ad)" d="M 548.0987 351.118835 
L 542.469732 328.997256 
L 552.637723 331.219167 
L 554.011943 325.250802 
L 554.093614 325.268648 
L 552.719393 331.237013 
L 562.887384 333.458924 
z
" style="fill:#ff7f00;stroke:#ff7f00;stroke-linejoin:miter;stroke-width:4;"/>
   </g>
   <g id="patch_5">
    <path clip-path="url(#pf375b633ad)" d="M 490.960963 307.642273 
L 484.258279 285.806565 
L 494.523246 287.554801 
L 495.177155 283.910913 
L 495.259604 283.924955 
L 494.605696 287.568843 
L 504.870663 289.317079 
z
" style="fill:#ff7f00;stroke:#ff7f00;stroke-linejoin:miter;stroke-width:4;"/>
   </g>
   <g id="line2d_1">
    <path clip-path="url(#pf375b633ad)" d="M 540.04319 410.832174 
L 535.527778 418.007723 
L 531.016771 425.141952 
L 526.027729 432.325041 
L 520.960194 439.180375 
L 516.639073 445.927567 
L 512.462769 452.423206 
L 508.23776 459.176838 
L 503.924642 465.987712 
L 499.577335 472.235979 
L 495.46939 477.765398 
L 491.603058 482.993481 
L 488.075095 487.431819 
L 484.895717 491.429709 
L 481.898482 494.988685 
L 479.059044 497.987366 
L 476.554809 500.78531 
L 474.404819 503.311298 
L 472.552974 505.726522 
L 470.926507 508.037547 
L 469.42606 510.30266 
L 468.055289 512.305041 
L 466.753707 514.164426 
L 465.414873 516.000541 
L 464.201079 517.954868 
L 463.033331 519.795843 
L 461.97568 521.423603 
L 460.983902 522.772479 
L 460.005685 523.998935 
L 459.131291 525.191709 
L 458.315451 526.285711 
L 457.609761 527.204688 
L 456.924908 528.031469 
L 456.235954 528.850103 
L 455.625751 529.549294 
L 455.019839 530.254625 
L 454.474705 530.915682 
L 454.022594 531.573951 
L 453.679665 532.317151 
L 453.403669 533.020268 
L 452.974627 533.524148 
L 452.534925 533.886923 
L 452.091031 534.158504 
L 451.793781 534.561938 
L 451.49287 535.017848 
L 451.236988 535.432005 
L 450.987552 535.867957 
L 450.730753 536.345525 
L 450.543496 536.807671 
L 450.34633 537.251863 
L 450.11798 537.701505 
L 449.874641 538.151187 
L 449.594993 538.594041 
L 449.095626 539.107887 
L 448.436621 539.74571 
L 447.752612 540.423618 
L 447.154252 541.024368 
L 446.605041 541.591457 
L 446.093865 542.141538 
L 445.718319 542.714242 
L 445.419501 543.23253 
L 444.984959 543.661013 
L 444.506964 544.016887 
L 444.019589 544.345808 
L 443.442038 544.662807 
L 442.804675 545.024791 
L 442.274048 545.464867 
L 441.81113 545.906348 
L 441.316561 546.37817 
L 440.828806 546.842562 
L 440.310458 547.299085 
L 439.762314 547.744248 
L 439.181437 548.188144 
L 438.68827 548.555864 
L 438.17899 548.883364 
L 437.703199 549.193538 
L 437.217203 549.407933 
L 436.783792 549.601568 
L 436.380335 549.911641 
L 436.00798 550.197718 
L 435.846084 550.332954 
L 435.68782 550.452235 
L 435.531679 550.50696 
L 435.380011 550.465037 
L 435.190485 550.274034 
L 434.853808 550.118201 
L 434.458564 549.928741 
L 434.005754 549.702027 
L 433.806412 549.286261 
L 433.612384 548.82034 
L 433.393466 548.266348 
L 433.1724 547.704593 
L 433.07112 547.246938 
L 433.157683 546.863578 
L 433.165401 546.610252 
L 433.318551 546.736001 
L 433.253921 546.970989 
L 432.958325 547.271163 
L 432.563417 547.627218 
L 432.136995 548.007838 
" style="fill:none;stroke:#4daf4a;stroke-linecap:square;stroke-width:6;"/>
   </g>
   <g id="line2d_2">
    <path clip-path="url(#pf375b633ad)" d="M 473.258516 361.110712 
L 471.207812 372.686806 
L 469.153978 383.81457 
L 465.705899 393.989678 
L 462.901559 402.820017 
L 460.657027 410.605236 
L 458.012703 417.386668 
L 455.743842 424.092079 
L 454.159723 430.531115 
L 452.495943 437.022498 
L 451.068873 443.021639 
L 449.546509 448.480029 
L 448.228377 453.247221 
L 447.149009 457.40746 
L 446.150237 461.470007 
L 445.247899 465.217904 
L 444.575933 468.634961 
L 443.901279 471.830015 
L 443.095582 474.634989 
L 442.241523 477.205719 
L 441.652264 479.772581 
L 441.67943 482.394799 
L 441.183679 484.804262 
L 440.733346 487.092252 
L 440.211307 489.432593 
L 439.670309 491.664027 
L 439.095733 493.719911 
L 438.519367 495.678581 
L 437.911293 497.521067 
L 437.320847 499.318223 
L 436.831742 500.993863 
L 436.335518 502.541384 
L 435.881438 503.859246 
L 435.482743 505.123713 
L 435.076089 506.195108 
L 434.561965 507.32578 
L 433.993717 508.393763 
L 433.432556 509.472596 
L 433.01707 510.365894 
L 432.646221 511.13213 
L 432.300205 511.893411 
L 432.023991 512.649432 
L 431.759259 513.454707 
L 431.495496 514.244612 
L 431.235884 515.021614 
L 430.988669 515.705775 
L 430.744139 516.305071 
L 430.463297 516.90279 
L 430.148768 517.585079 
L 429.776952 518.326273 
L 429.606009 519.199844 
L 429.646436 520.176938 
L 430.310365 521.443675 
L 430.283196 522.194965 
L 430.213546 522.786669 
L 430.051445 523.196389 
L 429.826355 523.659793 
L 429.580885 524.183709 
L 429.353773 524.76664 
L 429.107086 525.373962 
L 428.276446 526.015215 
L 427.861359 526.601974 
L 427.527032 527.416299 
L 427.218172 528.282501 
L 426.952549 529.077526 
L 426.628631 529.683396 
L 426.319527 530.154344 
L 426.239151 530.47746 
L 426.161859 530.783863 
L 426.126423 530.969309 
L 426.235095 531.119579 
L 426.382973 531.2668 
L 426.536964 531.280679 
L 426.67239 531.279388 
L 426.776835 531.309328 
L 426.640013 531.448758 
L 426.098591 531.657901 
L 425.742702 531.76663 
L 425.836721 531.894232 
L 425.949352 532.172817 
L 426.118453 532.623172 
L 426.423879 533.201429 
L 426.85856 533.496033 
L 427.357019 533.582317 
L 427.950715 533.505949 
L 428.257957 533.311182 
L 428.571408 533.060871 
L 428.953251 532.879569 
L 429.245359 532.636007 
L 429.526492 532.368408 
L 429.853749 532.205297 
L 430.03094 532.075168 
L 430.119616 532.170005 
L 429.831997 532.318947 
L 429.453711 532.376735 
L 429.249081 532.331601 
L 428.795293 532.027421 
L 428.001199 531.867921 
L 426.876245 531.993102 
L 425.721737 532.095497 
" style="fill:none;stroke:#e41a1c;stroke-linecap:square;stroke-width:6;"/>
   </g>
   <g id="line2d_3">
    <path clip-path="url(#pf375b633ad)" d="M 510.900022 273.138887 
L 513.263181 269.13116 
L 515.64691 265.174959 
L 517.678986 261.545523 
L 519.31749 258.444471 
L 520.743326 256.610976 
L 522.009062 255.387415 
L 523.488935 254.132704 
L 525.334851 252.856842 
L 527.429182 251.512798 
L 530.007235 250.750354 
L 532.428784 250.7767 
L 534.440581 250.567699 
L 535.61864 249.886682 
L 537.399056 249.985947 
L 538.619049 250.141765 
L 539.196832 249.829648 
L 539.656594 249.591136 
L 540.14113 249.457045 
L 540.634666 249.516028 
L 541.188988 249.622903 
L 541.630883 249.769252 
L 542.110644 250.036035 
L 542.653968 250.158717 
L 543.127053 250.099999 
L 543.527592 250.070773 
L 543.867843 249.994505 
L 544.134452 249.95396 
L 544.438516 249.877338 
L 544.817604 249.681345 
L 545.134556 249.451889 
L 545.169251 249.357365 
L 545.27723 249.243094 
L 545.551458 249.165343 
L 545.851927 249.090039 
L 546.066189 249.033671 
L 546.303478 248.940609 
L 546.530243 248.847351 
L 546.742295 248.885265 
L 547.023948 248.92437 
L 547.288318 248.995688 
L 547.65289 249.309018 
L 548.346601 250.004364 
L 548.571621 250.15079 
L 548.74638 250.28795 
L 548.928084 250.416539 
L 549.172021 250.640597 
L 549.413832 250.902711 
L 549.655186 251.163715 
L 549.948855 251.470244 
L 550.238555 251.848837 
L 550.486814 252.245525 
L 550.732409 252.65069 
L 551.001057 253.075026 
L 551.248277 253.467294 
L 551.398005 253.957366 
L 551.682499 254.917995 
L 552.040484 255.347118 
L 552.299595 255.76657 
L 552.570335 256.207206 
L 552.820117 256.679235 
L 553.128719 257.367322 
L 553.411468 257.973382 
L 553.599815 258.360639 
L 553.762499 258.758881 
L 553.943357 259.194156 
L 554.122433 259.619998 
L 554.37919 260.038382 
L 554.752465 260.614012 
L 554.960009 261.055188 
L 555.211492 261.579602 
L 555.433688 262.11603 
L 555.652469 262.622456 
L 555.865681 263.165864 
L 556.053536 263.762993 
L 556.214511 264.352024 
L 556.341565 265.011729 
L 556.463087 265.755849 
L 556.496689 266.594987 
L 556.240341 267.586703 
L 556.06266 268.778743 
L 556.052177 270.236878 
L 556.380825 271.872621 
L 556.702743 273.602045 
L 556.818808 275.593599 
L 556.996759 277.746665 
L 556.924154 279.716547 
L 556.707923 281.69944 
L 556.449785 283.946781 
L 556.538305 286.454187 
L 556.668967 289.246127 
L 556.754834 292.60387 
L 556.782919 296.473407 
L 556.693599 300.438918 
L 556.128119 304.939011 
L 555.62829 309.521077 
L 555.493702 314.660483 
L 555.095941 319.724475 
L 554.052779 325.259725 
L 552.678558 331.22809 
" style="fill:none;stroke:#ff7f00;stroke-dasharray:6,9.9;stroke-dashoffset:0;stroke-width:6;"/>
   </g>
   <g id="line2d_4">
    <path clip-path="url(#pf375b633ad)" d="M 494.753131 272.240297 
L 495.938493 268.910875 
L 497.104362 265.690947 
L 498.740068 262.450911 
L 500.53216 259.289799 
L 501.78938 256.578756 
L 502.517558 254.444745 
L 503.511283 253.094852 
L 504.579677 252.148147 
L 505.493461 251.292085 
L 505.991534 250.301448 
L 506.788662 249.349931 
L 507.673422 248.719112 
L 507.94225 247.85985 
L 508.007519 246.962124 
L 508.017755 246.128201 
L 508.032982 245.352536 
L 508.064229 244.600784 
L 508.105144 243.899395 
L 508.271254 243.343086 
L 508.490121 242.78835 
L 508.61875 242.377463 
L 508.619536 241.994282 
L 508.5884 241.650504 
L 508.517371 241.368058 
L 508.446354 241.109638 
L 508.243576 240.836278 
L 508.116048 240.499201 
L 507.994695 240.218282 
L 507.910201 240.014778 
L 507.863367 239.812425 
L 507.835993 239.573532 
L 507.826577 239.411462 
L 507.763776 239.350605 
L 507.678159 239.331088 
L 507.466675 239.427669 
L 507.298816 239.500242 
L 507.128948 239.540331 
L 507.053288 239.467484 
L 506.998013 239.402584 
L 506.996762 239.331374 
L 507.503792 239.731007 
L 508.007891 240.178212 
L 508.142581 240.179396 
L 508.222588 240.104428 
L 508.267234 240.097739 
L 508.243445 240.142562 
L 508.210697 240.231497 
L 508.156602 240.350848 
L 508.099811 240.463234 
L 508.021876 240.592085 
L 507.924331 240.739734 
L 507.853329 240.866612 
L 507.774616 241.037144 
L 507.691153 241.216977 
L 507.650999 241.317273 
L 507.600648 241.428498 
L 507.534864 241.577062 
L 507.450412 241.748062 
L 507.375376 241.887657 
L 507.346521 242.030775 
L 507.294862 242.240445 
L 507.202345 242.485974 
L 507.177695 242.755619 
L 507.243259 243.029614 
L 507.315713 243.432706 
L 507.387188 243.864114 
L 507.467343 244.089245 
L 507.560186 244.341442 
L 507.51824 244.615825 
L 507.389032 244.943742 
L 507.228842 245.329453 
L 507.151393 245.740222 
L 507.31574 246.104069 
L 507.487075 246.46762 
L 507.544859 246.804741 
L 507.410757 247.139102 
L 507.239288 247.516863 
L 507.033307 247.931529 
L 506.812636 248.390217 
L 506.748662 248.914 
L 506.720613 249.489476 
L 506.665578 250.148031 
L 506.503101 251.295601 
L 506.259334 253.038654 
L 506.102546 254.454762 
L 505.912674 255.698613 
L 505.698459 256.888976 
L 505.389909 258.207022 
L 504.881898 259.710041 
L 503.614976 260.96458 
L 502.201291 262.766418 
L 501.062342 265.441571 
L 500.061559 268.325046 
L 499.277774 271.095624 
L 498.141883 274.021506 
L 496.895692 277.167593 
L 495.797485 280.411495 
L 495.21838 283.917934 
L 494.564471 287.561822 
" style="fill:none;stroke:#ff7f00;stroke-dasharray:22.2,9.6;stroke-dashoffset:0;stroke-width:6;"/>
   </g>
   <g id="legend_1">
    <g id="patch_6">
     <path d="M 807.05625 81.390625 
L 851.742188 81.390625 
Q 853.742188 81.390625 853.742188 79.390625 
L 853.742188 7 
Q 853.742188 5 851.742188 5 
L 807.05625 5 
Q 805.05625 5 805.05625 7 
L 805.05625 79.390625 
Q 805.05625 81.390625 807.05625 81.390625 
z
" style="fill:#ffffff;opacity:0.8;stroke:#cccccc;stroke-linejoin:miter;"/>
    </g>
    <g id="line2d_5"/>
    <g id="line2d_6">
     <defs>
      <path d="M 0 3 
C 0.795609 3 1.55874 2.683901 2.12132 2.12132 
C 2.683901 1.55874 3 0.795609 3 0 
C 3 -0.795609 2.683901 -1.55874 2.12132 -2.12132 
C 1.55874 -2.683901 0.795609 -3 0 -3 
C -0.795609 -3 -1.55874 -2.683901 -2.12132 -2.12132 
C -2.683901 -1.55874 -3 -0.795609 -3 0 
C -3 0.795609 -2.683901 1.55874 -2.12132 2.12132 
C -1.55874 2.683901 -0.795609 3 0 3 
z
" id="m1128a6c7c8" style="stroke:#ff7f00;"/>
     </defs>
     <g>
      <use style="fill:#ff7f00;stroke:#ff7f00;" x="819.05625" xlink:href="#m1128a6c7c8" y="13.098438"/>
     </g>
    </g>
    <g id="text_1">
     <!-- eh -->
     <defs>
      <path d="M 56.203125 29.59375 
L 56.203125 25.203125 
L 14.890625 25.203125 
Q 15.484375 15.921875 20.484375 11.0625 
Q 25.484375 6.203125 34.421875 6.203125 
Q 39.59375 6.203125 44.453125 7.46875 
Q 49.3125 8.734375 54.109375 11.28125 
L 54.109375 2.78125 
Q 49.265625 0.734375 44.1875 -0.34375 
Q 39.109375 -1.421875 33.890625 -1.421875 
Q 20.796875 -1.421875 13.15625 6.1875 
Q 5.515625 13.8125 5.515625 26.8125 
Q 5.515625 40.234375 12.765625 48.109375 
Q 20.015625 56 32.328125 56 
Q 43.359375 56 49.78125 48.890625 
Q 56.203125 41.796875 56.203125 29.59375 
z
M 47.21875 32.234375 
Q 47.125 39.59375 43.09375 43.984375 
Q 39.0625 48.390625 32.421875 48.390625 
Q 24.90625 48.390625 20.390625 44.140625 
Q 15.875 39.890625 15.1875 32.171875 
z
" id="DejaVuSans-101"/>
      <path d="M 54.890625 33.015625 
L 54.890625 0 
L 45.90625 0 
L 45.90625 32.71875 
Q 45.90625 40.484375 42.875 44.328125 
Q 39.84375 48.1875 33.796875 48.1875 
Q 26.515625 48.1875 22.3125 43.546875 
Q 18.109375 38.921875 18.109375 30.90625 
L 18.109375 0 
L 9.078125 0 
L 9.078125 75.984375 
L 18.109375 75.984375 
L 18.109375 46.1875 
Q 21.34375 51.125 25.703125 53.5625 
Q 30.078125 56 35.796875 56 
Q 45.21875 56 50.046875 50.171875 
Q 54.890625 44.34375 54.890625 33.015625 
z
" id="DejaVuSans-104"/>
     </defs>
     <g transform="translate(837.05625 16.598438)scale(0.1 -0.1)">
      <use xlink:href="#DejaVuSans-101"/>
      <use x="61.523438" xlink:href="#DejaVuSans-104"/>
     </g>
    </g>
    <g id="line2d_7"/>
    <g id="line2d_8">
     <defs>
      <path d="M 0 3 
C 0.795609 3 1.55874 2.683901 2.12132 2.12132 
C 2.683901 1.55874 3 0.795609 3 0 
C 3 -0.795609 2.683901 -1.55874 2.12132 -2.12132 
C 1.55874 -2.683901 0.795609 -3 0 -3 
C -0.795609 -3 -1.55874 -2.683901 -2.12132 -2.12132 
C -2.683901 -1.55874 -3 -0.795609 -3 0 
C -3 0.795609 -2.683901 1.55874 -2.12132 2.12132 
C -1.55874 2.683901 -0.795609 3 0 3 
z
" id="m763c3dd745" style="stroke:#984ea3;"/>
     </defs>
     <g>
      <use style="fill:#984ea3;stroke:#984ea3;" x="819.05625" xlink:href="#m763c3dd745" y="27.776563"/>
     </g>
    </g>
    <g id="text_2">
     <!-- dh -->
     <defs>
      <path d="M 45.40625 46.390625 
L 45.40625 75.984375 
L 54.390625 75.984375 
L 54.390625 0 
L 45.40625 0 
L 45.40625 8.203125 
Q 42.578125 3.328125 38.25 0.953125 
Q 33.9375 -1.421875 27.875 -1.421875 
Q 17.96875 -1.421875 11.734375 6.484375 
Q 5.515625 14.40625 5.515625 27.296875 
Q 5.515625 40.1875 11.734375 48.09375 
Q 17.96875 56 27.875 56 
Q 33.9375 56 38.25 53.625 
Q 42.578125 51.265625 45.40625 46.390625 
z
M 14.796875 27.296875 
Q 14.796875 17.390625 18.875 11.75 
Q 22.953125 6.109375 30.078125 6.109375 
Q 37.203125 6.109375 41.296875 11.75 
Q 45.40625 17.390625 45.40625 27.296875 
Q 45.40625 37.203125 41.296875 42.84375 
Q 37.203125 48.484375 30.078125 48.484375 
Q 22.953125 48.484375 18.875 42.84375 
Q 14.796875 37.203125 14.796875 27.296875 
z
" id="DejaVuSans-100"/>
     </defs>
     <g transform="translate(837.05625 31.276563)scale(0.1 -0.1)">
      <use xlink:href="#DejaVuSans-100"/>
      <use x="63.476562" xlink:href="#DejaVuSans-104"/>
     </g>
    </g>
    <g id="line2d_9"/>
    <g id="line2d_10">
     <defs>
      <path d="M 0 3 
C 0.795609 3 1.55874 2.683901 2.12132 2.12132 
C 2.683901 1.55874 3 0.795609 3 0 
C 3 -0.795609 2.683901 -1.55874 2.12132 -2.12132 
C 1.55874 -2.683901 0.795609 -3 0 -3 
C -0.795609 -3 -1.55874 -2.683901 -2.12132 -2.12132 
C -2.683901 -1.55874 -3 -0.795609 -3 0 
C -3 0.795609 -2.683901 1.55874 -2.12132 2.12132 
C -1.55874 2.683901 -0.795609 3 0 3 
z
" id="mce70376238" style="stroke:#4daf4a;"/>
     </defs>
     <g>
      <use style="fill:#4daf4a;stroke:#4daf4a;" x="819.05625" xlink:href="#mce70376238" y="42.454688"/>
     </g>
    </g>
    <g id="text_3">
     <!-- m -->
     <defs>
      <path d="M 52 44.1875 
Q 55.375 50.25 60.0625 53.125 
Q 64.75 56 71.09375 56 
Q 79.640625 56 84.28125 50.015625 
Q 88.921875 44.046875 88.921875 33.015625 
L 88.921875 0 
L 79.890625 0 
L 79.890625 32.71875 
Q 79.890625 40.578125 77.09375 44.375 
Q 74.3125 48.1875 68.609375 48.1875 
Q 61.625 48.1875 57.5625 43.546875 
Q 53.515625 38.921875 53.515625 30.90625 
L 53.515625 0 
L 44.484375 0 
L 44.484375 32.71875 
Q 44.484375 40.625 41.703125 44.40625 
Q 38.921875 48.1875 33.109375 48.1875 
Q 26.21875 48.1875 22.15625 43.53125 
Q 18.109375 38.875 18.109375 30.90625 
L 18.109375 0 
L 9.078125 0 
L 9.078125 54.6875 
L 18.109375 54.6875 
L 18.109375 46.1875 
Q 21.1875 51.21875 25.484375 53.609375 
Q 29.78125 56 35.6875 56 
Q 41.65625 56 45.828125 52.96875 
Q 50 49.953125 52 44.1875 
z
" id="DejaVuSans-109"/>
     </defs>
     <g transform="translate(837.05625 45.954688)scale(0.1 -0.1)">
      <use xlink:href="#DejaVuSans-109"/>
     </g>
    </g>
    <g id="line2d_11"/>
    <g id="line2d_12">
     <defs>
      <path d="M 0 3 
C 0.795609 3 1.55874 2.683901 2.12132 2.12132 
C 2.683901 1.55874 3 0.795609 3 0 
C 3 -0.795609 2.683901 -1.55874 2.12132 -2.12132 
C 1.55874 -2.683901 0.795609 -3 0 -3 
C -0.795609 -3 -1.55874 -2.683901 -2.12132 -2.12132 
C -2.683901 -1.55874 -3 -0.795609 -3 0 
C -3 0.795609 -2.683901 1.55874 -2.12132 2.12132 
C -1.55874 2.683901 -0.795609 3 0 3 
z
" id="m9e62747dba" style="stroke:#e41a1c;"/>
     </defs>
     <g>
      <use style="fill:#e41a1c;stroke:#e41a1c;" x="819.05625" xlink:href="#m9e62747dba" y="57.132812"/>
     </g>
    </g>
    <g id="text_4">
     <!-- n -->
     <defs>
      <path d="M 54.890625 33.015625 
L 54.890625 0 
L 45.90625 0 
L 45.90625 32.71875 
Q 45.90625 40.484375 42.875 44.328125 
Q 39.84375 48.1875 33.796875 48.1875 
Q 26.515625 48.1875 22.3125 43.546875 
Q 18.109375 38.921875 18.109375 30.90625 
L 18.109375 0 
L 9.078125 0 
L 9.078125 54.6875 
L 18.109375 54.6875 
L 18.109375 46.1875 
Q 21.34375 51.125 25.703125 53.5625 
Q 30.078125 56 35.796875 56 
Q 45.21875 56 50.046875 50.171875 
Q 54.890625 44.34375 54.890625 33.015625 
z
" id="DejaVuSans-110"/>
     </defs>
     <g transform="translate(837.05625 60.632812)scale(0.1 -0.1)">
      <use xlink:href="#DejaVuSans-110"/>
     </g>
    </g>
    <g id="line2d_13"/>
    <g id="line2d_14">
     <defs>
      <path d="M 0 3 
C 0.795609 3 1.55874 2.683901 2.12132 2.12132 
C 2.683901 1.55874 3 0.795609 3 0 
C 3 -0.795609 2.683901 -1.55874 2.12132 -2.12132 
C 1.55874 -2.683901 0.795609 -3 0 -3 
C -0.795609 -3 -1.55874 -2.683901 -2.12132 -2.12132 
C -2.683901 -1.55874 -3 -0.795609 -3 0 
C -3 0.795609 -2.683901 1.55874 -2.12132 2.12132 
C -1.55874 2.683901 -0.795609 3 0 3 
z
" id="mf8cea71c6b" style="stroke:#377eb8;"/>
     </defs>
     <g>
      <use style="fill:#377eb8;stroke:#377eb8;" x="819.05625" xlink:href="#mf8cea71c6b" y="71.810938"/>
     </g>
    </g>
    <g id="text_5">
     <!-- ah -->
     <defs>
      <path d="M 34.28125 27.484375 
Q 23.390625 27.484375 19.1875 25 
Q 14.984375 22.515625 14.984375 16.5 
Q 14.984375 11.71875 18.140625 8.90625 
Q 21.296875 6.109375 26.703125 6.109375 
Q 34.1875 6.109375 38.703125 11.40625 
Q 43.21875 16.703125 43.21875 25.484375 
L 43.21875 27.484375 
z
M 52.203125 31.203125 
L 52.203125 0 
L 43.21875 0 
L 43.21875 8.296875 
Q 40.140625 3.328125 35.546875 0.953125 
Q 30.953125 -1.421875 24.3125 -1.421875 
Q 15.921875 -1.421875 10.953125 3.296875 
Q 6 8.015625 6 15.921875 
Q 6 25.140625 12.171875 29.828125 
Q 18.359375 34.515625 30.609375 34.515625 
L 43.21875 34.515625 
L 43.21875 35.40625 
Q 43.21875 41.609375 39.140625 45 
Q 35.0625 48.390625 27.6875 48.390625 
Q 23 48.390625 18.546875 47.265625 
Q 14.109375 46.140625 10.015625 43.890625 
L 10.015625 52.203125 
Q 14.9375 54.109375 19.578125 55.046875 
Q 24.21875 56 28.609375 56 
Q 40.484375 56 46.34375 49.84375 
Q 52.203125 43.703125 52.203125 31.203125 
z
" id="DejaVuSans-97"/>
     </defs>
     <g transform="translate(837.05625 75.310938)scale(0.1 -0.1)">
      <use xlink:href="#DejaVuSans-97"/>
      <use x="61.279297" xlink:href="#DejaVuSans-104"/>
     </g>
    </g>
   </g>
  </g>
 </g>
 <defs>
  <clipPath id="pf375b633ad">
   <rect height="815.4" width="837" x="21.742188" y="0"/>
  </clipPath>
 </defs>
</svg>
