<?xml version="1.0" encoding="utf-8" standalone="no"?>
<!DOCTYPE svg PUBLIC "-//W3C//DTD SVG 1.1//EN"
  "http://www.w3.org/Graphics/SVG/1.1/DTD/svg11.dtd">
<!-- Created with matplotlib (https://matplotlib.org/) -->
<svg height="835.877344pt" version="1.1" viewBox="0 0 861.923437 835.877344" width="861.923437pt" xmlns="http://www.w3.org/2000/svg" xmlns:xlink="http://www.w3.org/1999/xlink">
 <defs>
  <style type="text/css">
*{stroke-linecap:butt;stroke-linejoin:round;}
  </style>
 </defs>
 <g id="figure_1">
  <g id="patch_1">
   <path d="M -0 835.877344 
L 861.923437 835.877344 
L 861.923437 0 
L -0 0 
z
" style="fill:none;"/>
  </g>
  <g id="axes_1">
   <g id="patch_2">
    <path clip-path="url(#p06ddae55f5)" d="M 488.093272 445.065293 
L 459.296427 470.675167 
L 454.549996 454.364399 
L 448.883429 455.929359 
L 448.864405 455.863985 
L 454.530972 454.299025 
L 449.78454 437.988257 
z
" style="fill:#377eb8;stroke:#377eb8;stroke-linejoin:miter;stroke-width:4;"/>
   </g>
   <g id="patch_3">
    <path clip-path="url(#p06ddae55f5)" d="M 443.080493 355.860753 
L 481.940716 358.97438 
L 472.908329 373.465565 
L 477.095921 375.942722 
L 477.059719 376.000803 
L 472.872127 373.523646 
L 463.839741 388.014832 
z
" style="fill:#e41a1c;stroke:#e41a1c;stroke-linejoin:miter;stroke-width:4;"/>
   </g>
   <g id="patch_4">
    <path clip-path="url(#p06ddae55f5)" d="M 371.791323 472.591033 
L 354.175888 506.478808 
L 343.805572 492.864199 
L 328.055908 504.249608 
L 328.014344 504.195041 
L 343.764007 492.809632 
L 333.393691 479.195023 
z
" style="fill:#4daf4a;stroke:#4daf4a;stroke-linejoin:miter;stroke-width:4;"/>
   </g>
   <g id="patch_5">
    <path clip-path="url(#p06ddae55f5)" d="M 557.376298 254.369072 
L 521.922411 238.55968 
L 535.477298 227.927287 
L 533.579091 225.630616 
L 533.63342 225.588001 
L 535.531626 227.884672 
L 549.086512 217.252279 
z
" style="fill:#984ea3;stroke:#984ea3;stroke-linejoin:miter;stroke-width:4;"/>
   </g>
   <g id="line2d_1">
    <path clip-path="url(#p06ddae55f5)" d="M 298.636009 351.75728 
L 298.722711 351.008761 
L 298.804329 350.254495 
L 298.85853 349.445812 
L 298.805495 348.470546 
L 298.518567 347.44852 
L 297.935221 346.179563 
L 297.134995 344.588269 
L 295.978691 342.867675 
L 294.71652 341.088158 
L 293.219676 339.096993 
L 291.3469 336.880738 
L 289.184292 334.593673 
L 286.784629 332.453222 
L 284.301709 330.418033 
L 281.87563 328.376188 
L 279.519237 326.337657 
L 277.082465 324.304968 
L 274.587689 322.26074 
L 272.035162 320.322491 
L 269.68913 318.609213 
L 267.587306 317.08305 
L 265.55211 315.687933 
L 263.553983 314.698517 
L 261.649552 313.745043 
L 259.941672 312.790305 
L 258.567212 311.818814 
L 257.207895 310.917994 
L 255.879884 310.050773 
L 254.719671 309.358142 
L 253.602115 308.680592 
L 252.512779 308.102603 
L 251.503809 307.64734 
L 250.510826 307.209219 
L 249.726486 307.375201 
L 248.930191 307.555579 
L 248.108965 307.83412 
L 247.476149 308.423432 
L 246.854366 309.146805 
L 246.313038 309.911889 
L 245.828783 310.678635 
L 245.376265 311.504116 
L 244.934778 312.591415 
L 244.570661 313.913937 
L 244.234735 315.312046 
L 244.033909 316.778855 
L 243.917344 318.270693 
L 243.884651 319.808864 
L 243.870125 321.511632 
L 243.845447 323.263445 
L 244.179246 325.150185 
L 244.879447 327.161354 
L 245.571497 329.17489 
L 246.401208 331.216967 
L 247.305519 333.429211 
L 248.471346 335.97357 
L 249.932826 338.520218 
L 251.537899 341.181424 
L 253.291119 343.947815 
L 255.248504 346.894535 
L 257.334231 350.047027 
L 259.54095 353.351967 
L 261.825971 356.635793 
L 264.186708 359.956015 
L 266.791526 363.696212 
L 269.662627 367.935287 
L 272.630676 372.351597 
L 275.90157 376.883763 
L 279.275555 381.508764 
L 282.965568 386.484754 
L 286.76134 391.427244 
L 290.8388 396.461732 
L 295.297537 401.696141 
L 300.090652 406.81231 
L 305.28101 411.885928 
L 310.93875 416.887049 
L 316.882091 421.860819 
L 323.001842 426.834665 
L 329.354409 431.610359 
L 335.518835 436.073303 
L 341.72719 440.702554 
L 348.113983 445.057174 
L 354.226776 448.791348 
L 360.345084 452.169789 
L 366.529057 454.898594 
L 372.440494 457.113886 
L 378.635931 459.020603 
L 384.765099 460.793694 
L 390.562594 462.100676 
L 396.426759 462.924745 
L 402.443708 463.305687 
L 408.584177 463.206548 
L 414.568054 463.029602 
L 420.425244 462.454969 
L 426.275307 461.615434 
L 431.878797 460.493345 
L 437.531938 459.018186 
L 443.207557 457.4602 
L 448.873917 455.896672 
L 454.540484 454.331712 
" style="fill:none;stroke:#377eb8;stroke-linecap:square;stroke-width:10;"/>
   </g>
   <g id="line2d_2">
    <path clip-path="url(#p06ddae55f5)" d="M 514.119669 356.89832 
L 522.239153 355.576284 
L 530.026449 354.95841 
L 536.806019 355.712755 
L 542.278545 357.0964 
L 546.856226 358.299998 
L 550.972658 360.07694 
L 554.262747 361.911146 
L 556.598277 363.84642 
L 558.70068 365.935835 
L 560.618241 368.093242 
L 562.265221 370.178491 
L 563.611592 372.031834 
L 564.714157 373.831315 
L 565.627355 375.608927 
L 566.269026 377.193357 
L 566.951687 378.812335 
L 567.660555 380.315255 
L 568.215182 381.641146 
L 568.626408 382.982001 
L 569.109368 384.336234 
L 569.498387 385.630862 
L 569.939652 386.799061 
L 570.474731 387.850464 
L 570.956727 388.766844 
L 571.287372 389.571855 
L 571.430945 390.33924 
L 571.548695 391.139815 
L 571.595331 392.032776 
L 571.656527 392.905127 
L 571.728603 393.791478 
L 571.348214 394.469579 
L 570.960911 395.199485 
L 570.592931 395.963927 
L 570.240343 396.603173 
L 570.032013 397.267778 
L 569.740749 398.075046 
L 569.484056 398.69841 
L 569.213401 399.296116 
L 568.959169 399.894491 
L 568.704898 400.507262 
L 568.389631 401.125491 
L 568.013723 401.828595 
L 567.576012 402.52545 
L 567.05928 403.180836 
L 565.90182 403.588942 
L 565.052908 404.005008 
L 564.458243 404.43195 
L 563.736192 404.787976 
L 562.894768 405.179631 
L 562.077195 405.82133 
L 561.184868 406.423086 
L 560.471443 406.927121 
L 559.771165 407.473089 
L 559.012055 407.946718 
L 558.252836 408.375591 
L 557.671059 408.910404 
L 557.144346 409.236153 
L 556.293877 409.360322 
L 555.664521 409.493707 
L 554.843353 409.624639 
L 553.875779 409.898053 
L 553.029299 410.081987 
L 552.040007 410.039984 
L 550.680009 409.993439 
L 549.272038 410.075967 
L 548.168585 410.249644 
L 547.169792 410.314308 
L 546.221132 410.382793 
L 544.990637 410.550007 
L 543.495804 410.664863 
L 541.907355 410.741074 
L 540.130162 410.696176 
L 538.294967 410.479188 
L 536.738152 410.248762 
L 535.299736 410.107992 
L 533.74837 409.90837 
L 532.047171 409.587353 
L 530.110464 409.174199 
L 528.226761 408.543837 
L 526.298647 407.982173 
L 524.440364 407.445073 
L 522.576304 406.688173 
L 520.386074 405.838325 
L 518.008635 404.886551 
L 515.621997 403.934436 
L 513.304189 402.952069 
L 511.059851 401.783003 
L 508.509453 400.51142 
L 505.835778 399.050169 
L 503.409335 397.408224 
L 500.377776 395.58685 
L 497.499289 393.396813 
L 494.508039 390.831839 
L 491.673055 388.085522 
L 488.650791 385.312824 
L 485.140292 381.77969 
L 481.208516 378.562227 
L 477.07782 375.971762 
L 472.890228 373.494606 
" style="fill:none;stroke:#e41a1c;stroke-linecap:square;stroke-width:10;"/>
   </g>
   <g id="line2d_3">
    <path clip-path="url(#p06ddae55f5)" d="M 254.120429 512.448874 
L 253.532508 517.627542 
L 252.941324 522.803976 
L 252.181276 528.023652 
L 250.762855 533.0329 
L 248.828449 537.77026 
L 246.444978 542.538629 
L 243.635209 547.569774 
L 240.39171 552.835374 
L 237.004989 558.000516 
L 233.634061 562.982282 
L 230.373902 567.766632 
L 227.366969 572.296073 
L 224.474732 576.732813 
L 221.916088 580.747447 
L 219.593902 584.476084 
L 217.4556 588.095981 
L 215.581585 591.495646 
L 214.016637 594.617588 
L 212.697259 597.473682 
L 211.54244 600.03171 
L 210.491279 602.447124 
L 209.607028 604.637571 
L 208.837916 606.637983 
L 208.127318 608.468586 
L 207.40061 610.172379 
L 206.780654 611.753948 
L 206.256358 613.161816 
L 205.8328 614.481309 
L 205.494148 615.667562 
L 205.189734 616.763287 
L 204.921151 617.765715 
L 204.610743 618.661432 
L 204.331571 619.485451 
L 204.153686 620.163243 
L 204.054327 620.837902 
L 203.94543 621.456459 
L 203.831868 622.000779 
L 203.776304 622.469619 
L 203.731242 622.871513 
L 203.753095 623.227293 
L 203.823117 623.574864 
L 203.877932 623.906505 
L 203.966396 624.227161 
L 204.095285 624.538485 
L 204.224538 624.814709 
L 204.352449 625.04467 
L 204.496256 625.205238 
L 204.666639 625.337003 
L 204.912452 625.487769 
L 205.213837 625.622804 
L 205.55644 625.746767 
L 205.856337 625.818114 
L 206.185145 625.790952 
L 206.524865 625.700596 
L 206.810733 625.539888 
L 207.085419 625.35589 
L 207.371538 625.177863 
L 207.695304 625.013858 
L 208.10281 624.839761 
L 208.534874 624.650005 
L 208.98241 624.469011 
L 209.440519 624.222437 
L 209.943237 623.909075 
L 210.497609 623.535764 
L 211.060044 623.101247 
L 211.653986 622.624386 
L 212.243839 622.029841 
L 212.898226 621.458845 
L 213.596842 620.881125 
L 214.325968 620.234106 
L 215.106327 619.513795 
L 215.918486 618.717841 
L 216.760002 617.844038 
L 217.713222 616.859911 
L 218.708168 615.780671 
L 219.791495 614.575451 
L 220.956705 613.258254 
L 222.174769 611.847677 
L 223.478324 610.285855 
L 224.819934 608.501146 
L 226.258869 606.454969 
L 227.754555 604.273989 
L 229.380556 601.912582 
L 231.114018 599.191893 
L 232.946203 596.254065 
L 235.039158 592.894727 
L 237.383884 589.045406 
L 240.045291 584.700833 
L 243.212556 579.92151 
L 246.875383 574.745078 
L 251.373599 568.999007 
L 257.208559 562.494616 
L 264.591126 554.988232 
L 273.358461 546.61455 
L 283.863871 537.364561 
L 297.067033 526.900377 
L 312.356497 515.5803 
L 328.035126 504.222325 
L 343.78479 492.836915 
" style="fill:none;stroke:#4daf4a;stroke-linecap:square;stroke-width:10;"/>
   </g>
   <g id="line2d_4">
    <path clip-path="url(#p06ddae55f5)" d="M 404.620921 279.590187 
L 406.422199 277.214102 
L 408.223631 274.83798 
L 410.03795 272.45728 
L 411.764501 270.024393 
L 413.191699 267.107579 
L 414.314996 264.016585 
L 415.295626 260.436271 
L 416.273326 255.876627 
L 417.088908 250.792471 
L 417.686193 245.006793 
L 417.887503 238.967302 
L 417.684482 232.99632 
L 417.325707 227.088581 
L 416.874635 221.576197 
L 416.185823 216.576666 
L 415.456312 211.847413 
L 414.716371 207.670295 
L 413.998154 204.053026 
L 413.397966 200.96185 
L 412.871788 198.378607 
L 412.413593 196.187019 
L 411.979805 194.389604 
L 411.713315 192.479923 
L 411.630006 190.525884 
L 411.70371 188.637165 
L 411.909043 186.961564 
L 412.159222 185.489208 
L 412.390754 184.23513 
L 412.706455 183.000722 
L 413.133497 181.787813 
L 413.594604 180.863712 
L 414.158291 180.188511 
L 414.821311 179.447993 
L 415.498376 178.969155 
L 416.166194 178.508616 
L 416.844769 178.099946 
L 417.601174 177.772702 
L 418.429107 177.447985 
L 419.4053 176.94398 
L 420.397234 176.461173 
L 421.439251 175.987831 
L 422.49544 175.576484 
L 423.520763 175.266624 
L 424.597171 174.956595 
L 425.725706 174.763753 
L 426.940793 174.59336 
L 428.279729 174.382665 
L 429.697635 174.164258 
L 431.18407 173.938192 
L 432.713903 173.857677 
L 434.337529 173.85813 
L 435.979539 173.863657 
L 437.639578 173.836864 
L 439.342547 173.806731 
L 441.13857 173.826792 
L 443.004109 173.903751 
L 444.848849 174.064558 
L 446.735135 174.331891 
L 448.697511 174.609471 
L 450.739872 174.917456 
L 452.936329 175.212271 
L 455.227108 175.510571 
L 457.472129 175.951472 
L 459.791773 176.43906 
L 462.142814 177.014181 
L 464.474216 177.68068 
L 466.777643 178.2708 
L 469.005788 178.951406 
L 471.149006 179.699511 
L 473.424732 180.542621 
L 475.74286 181.576121 
L 478.032781 182.669417 
L 480.359266 183.796538 
L 482.632953 184.81221 
L 484.868347 185.870758 
L 487.044536 187.036912 
L 489.146796 188.202312 
L 491.262238 189.392186 
L 493.435933 190.662095 
L 495.597257 192.019622 
L 497.762167 193.331898 
L 499.968094 194.704788 
L 502.230427 196.244953 
L 504.508069 197.924179 
L 506.761698 199.678592 
L 508.952365 201.404363 
L 511.095106 203.251134 
L 513.302819 205.10682 
L 515.508938 206.913232 
L 517.725712 208.721388 
L 519.839976 210.533751 
L 521.871726 212.341404 
L 523.844426 214.281648 
L 525.860665 216.438026 
L 527.856753 218.7104 
L 529.813079 221.01077 
L 531.709449 223.313248 
L 533.606255 225.609309 
L 535.504462 227.905979 
" style="fill:none;stroke:#984ea3;stroke-linecap:square;stroke-width:10;"/>
   </g>
   <g id="legend_1">
    <g id="patch_6">
     <path d="M 807.670313 70.511719 
L 851.742188 70.511719 
Q 853.742188 70.511719 853.742188 68.511719 
L 853.742188 10.799219 
Q 853.742188 8.799219 851.742188 8.799219 
L 807.670313 8.799219 
Q 805.670313 8.799219 805.670313 10.799219 
L 805.670313 68.511719 
Q 805.670313 70.511719 807.670313 70.511719 
z
" style="fill:#ffffff;opacity:0.8;stroke:#cccccc;stroke-linejoin:miter;"/>
    </g>
    <g id="line2d_5"/>
    <g id="line2d_6">
     <defs>
      <path d="M 0 3 
C 0.795609 3 1.55874 2.683901 2.12132 2.12132 
C 2.683901 1.55874 3 0.795609 3 0 
C 3 -0.795609 2.683901 -1.55874 2.12132 -2.12132 
C 1.55874 -2.683901 0.795609 -3 0 -3 
C -0.795609 -3 -1.55874 -2.683901 -2.12132 -2.12132 
C -2.683901 -1.55874 -3 -0.795609 -3 0 
C -3 0.795609 -2.683901 1.55874 -2.12132 2.12132 
C -1.55874 2.683901 -0.795609 3 0 3 
z
" id="mb43de1eaab" style="stroke:#e41a1c;"/>
     </defs>
     <g>
      <use style="fill:#e41a1c;stroke:#e41a1c;" x="819.670313" xlink:href="#mb43de1eaab" y="16.897656"/>
     </g>
    </g>
    <g id="text_1">
     <!-- ey -->
     <defs>
      <path d="M 56.203125 29.59375 
L 56.203125 25.203125 
L 14.890625 25.203125 
Q 15.484375 15.921875 20.484375 11.0625 
Q 25.484375 6.203125 34.421875 6.203125 
Q 39.59375 6.203125 44.453125 7.46875 
Q 49.3125 8.734375 54.109375 11.28125 
L 54.109375 2.78125 
Q 49.265625 0.734375 44.1875 -0.34375 
Q 39.109375 -1.421875 33.890625 -1.421875 
Q 20.796875 -1.421875 13.15625 6.1875 
Q 5.515625 13.8125 5.515625 26.8125 
Q 5.515625 40.234375 12.765625 48.109375 
Q 20.015625 56 32.328125 56 
Q 43.359375 56 49.78125 48.890625 
Q 56.203125 41.796875 56.203125 29.59375 
z
M 47.21875 32.234375 
Q 47.125 39.59375 43.09375 43.984375 
Q 39.0625 48.390625 32.421875 48.390625 
Q 24.90625 48.390625 20.390625 44.140625 
Q 15.875 39.890625 15.1875 32.171875 
z
" id="DejaVuSans-101"/>
      <path d="M 32.171875 -5.078125 
Q 28.375 -14.84375 24.75 -17.8125 
Q 21.140625 -20.796875 15.09375 -20.796875 
L 7.90625 -20.796875 
L 7.90625 -13.28125 
L 13.1875 -13.28125 
Q 16.890625 -13.28125 18.9375 -11.515625 
Q 21 -9.765625 23.484375 -3.21875 
L 25.09375 0.875 
L 2.984375 54.6875 
L 12.5 54.6875 
L 29.59375 11.921875 
L 46.6875 54.6875 
L 56.203125 54.6875 
z
" id="DejaVuSans-121"/>
     </defs>
     <g transform="translate(837.670313 20.397656)scale(0.1 -0.1)">
      <use xlink:href="#DejaVuSans-101"/>
      <use x="61.523438" xlink:href="#DejaVuSans-121"/>
     </g>
    </g>
    <g id="line2d_7"/>
    <g id="line2d_8">
     <defs>
      <path d="M 0 3 
C 0.795609 3 1.55874 2.683901 2.12132 2.12132 
C 2.683901 1.55874 3 0.795609 3 0 
C 3 -0.795609 2.683901 -1.55874 2.12132 -2.12132 
C 1.55874 -2.683901 0.795609 -3 0 -3 
C -0.795609 -3 -1.55874 -2.683901 -2.12132 -2.12132 
C -2.683901 -1.55874 -3 -0.795609 -3 0 
C -3 0.795609 -2.683901 1.55874 -2.12132 2.12132 
C -1.55874 2.683901 -0.795609 3 0 3 
z
" id="m87cc8a7596" style="stroke:#4daf4a;"/>
     </defs>
     <g>
      <use style="fill:#4daf4a;stroke:#4daf4a;" x="819.670313" xlink:href="#m87cc8a7596" y="31.575781"/>
     </g>
    </g>
    <g id="text_2">
     <!-- s -->
     <defs>
      <path d="M 44.28125 53.078125 
L 44.28125 44.578125 
Q 40.484375 46.53125 36.375 47.5 
Q 32.28125 48.484375 27.875 48.484375 
Q 21.1875 48.484375 17.84375 46.4375 
Q 14.5 44.390625 14.5 40.28125 
Q 14.5 37.15625 16.890625 35.375 
Q 19.28125 33.59375 26.515625 31.984375 
L 29.59375 31.296875 
Q 39.15625 29.25 43.1875 25.515625 
Q 47.21875 21.78125 47.21875 15.09375 
Q 47.21875 7.46875 41.1875 3.015625 
Q 35.15625 -1.421875 24.609375 -1.421875 
Q 20.21875 -1.421875 15.453125 -0.5625 
Q 10.6875 0.296875 5.421875 2 
L 5.421875 11.28125 
Q 10.40625 8.6875 15.234375 7.390625 
Q 20.0625 6.109375 24.8125 6.109375 
Q 31.15625 6.109375 34.5625 8.28125 
Q 37.984375 10.453125 37.984375 14.40625 
Q 37.984375 18.0625 35.515625 20.015625 
Q 33.0625 21.96875 24.703125 23.78125 
L 21.578125 24.515625 
Q 13.234375 26.265625 9.515625 29.90625 
Q 5.8125 33.546875 5.8125 39.890625 
Q 5.8125 47.609375 11.28125 51.796875 
Q 16.75 56 26.8125 56 
Q 31.78125 56 36.171875 55.265625 
Q 40.578125 54.546875 44.28125 53.078125 
z
" id="DejaVuSans-115"/>
     </defs>
     <g transform="translate(837.670313 35.075781)scale(0.1 -0.1)">
      <use xlink:href="#DejaVuSans-115"/>
     </g>
    </g>
    <g id="line2d_9"/>
    <g id="line2d_10">
     <defs>
      <path d="M 0 3 
C 0.795609 3 1.55874 2.683901 2.12132 2.12132 
C 2.683901 1.55874 3 0.795609 3 0 
C 3 -0.795609 2.683901 -1.55874 2.12132 -2.12132 
C 1.55874 -2.683901 0.795609 -3 0 -3 
C -0.795609 -3 -1.55874 -2.683901 -2.12132 -2.12132 
C -2.683901 -1.55874 -3 -0.795609 -3 0 
C -3 0.795609 -2.683901 1.55874 -2.12132 2.12132 
C -1.55874 2.683901 -0.795609 3 0 3 
z
" id="m5fb7ad7252" style="stroke:#984ea3;"/>
     </defs>
     <g>
      <use style="fill:#984ea3;stroke:#984ea3;" x="819.670313" xlink:href="#m5fb7ad7252" y="46.253906"/>
     </g>
    </g>
    <g id="text_3">
     <!-- w -->
     <defs>
      <path d="M 4.203125 54.6875 
L 13.1875 54.6875 
L 24.421875 12.015625 
L 35.59375 54.6875 
L 46.1875 54.6875 
L 57.421875 12.015625 
L 68.609375 54.6875 
L 77.59375 54.6875 
L 63.28125 0 
L 52.6875 0 
L 40.921875 44.828125 
L 29.109375 0 
L 18.5 0 
z
" id="DejaVuSans-119"/>
     </defs>
     <g transform="translate(837.670313 49.753906)scale(0.1 -0.1)">
      <use xlink:href="#DejaVuSans-119"/>
     </g>
    </g>
    <g id="line2d_11"/>
    <g id="line2d_12">
     <defs>
      <path d="M 0 3 
C 0.795609 3 1.55874 2.683901 2.12132 2.12132 
C 2.683901 1.55874 3 0.795609 3 0 
C 3 -0.795609 2.683901 -1.55874 2.12132 -2.12132 
C 1.55874 -2.683901 0.795609 -3 0 -3 
C -0.795609 -3 -1.55874 -2.683901 -2.12132 -2.12132 
C -2.683901 -1.55874 -3 -0.795609 -3 0 
C -3 0.795609 -2.683901 1.55874 -2.12132 2.12132 
C -1.55874 2.683901 -0.795609 3 0 3 
z
" id="m65dcbdd897" style="stroke:#377eb8;"/>
     </defs>
     <g>
      <use style="fill:#377eb8;stroke:#377eb8;" x="819.670313" xlink:href="#m65dcbdd897" y="60.932031"/>
     </g>
    </g>
    <g id="text_4">
     <!-- d -->
     <defs>
      <path d="M 45.40625 46.390625 
L 45.40625 75.984375 
L 54.390625 75.984375 
L 54.390625 0 
L 45.40625 0 
L 45.40625 8.203125 
Q 42.578125 3.328125 38.25 0.953125 
Q 33.9375 -1.421875 27.875 -1.421875 
Q 17.96875 -1.421875 11.734375 6.484375 
Q 5.515625 14.40625 5.515625 27.296875 
Q 5.515625 40.1875 11.734375 48.09375 
Q 17.96875 56 27.875 56 
Q 33.9375 56 38.25 53.625 
Q 42.578125 51.265625 45.40625 46.390625 
z
M 14.796875 27.296875 
Q 14.796875 17.390625 18.875 11.75 
Q 22.953125 6.109375 30.078125 6.109375 
Q 37.203125 6.109375 41.296875 11.75 
Q 45.40625 17.390625 45.40625 27.296875 
Q 45.40625 37.203125 41.296875 42.84375 
Q 37.203125 48.484375 30.078125 48.484375 
Q 22.953125 48.484375 18.875 42.84375 
Q 14.796875 37.203125 14.796875 27.296875 
z
" id="DejaVuSans-100"/>
     </defs>
     <g transform="translate(837.670313 64.432031)scale(0.1 -0.1)">
      <use xlink:href="#DejaVuSans-100"/>
     </g>
    </g>
   </g>
  </g>
 </g>
 <defs>
  <clipPath id="p06ddae55f5">
   <rect height="815.4" width="837" x="21.742188" y="3.799219"/>
  </clipPath>
 </defs>
</svg>
