<?xml version="1.0" encoding="utf-8" standalone="no"?>
<!DOCTYPE svg PUBLIC "-//W3C//DTD SVG 1.1//EN"
  "http://www.w3.org/Graphics/SVG/1.1/DTD/svg11.dtd">
<!-- Created with matplotlib (https://matplotlib.org/) -->
<svg height="835.877344pt" version="1.1" viewBox="0 0 2535.923437 835.877344" width="2535.923437pt" xmlns="http://www.w3.org/2000/svg" xmlns:xlink="http://www.w3.org/1999/xlink">
 <defs>
  <style type="text/css">
*{stroke-linecap:butt;stroke-linejoin:round;}
  </style>
 </defs>
 <g id="figure_1">
  <g id="patch_1">
   <path d="M 0 835.877344 
L 2535.923437 835.877344 
L 2535.923437 0 
L 0 0 
z
" style="fill:none;"/>
  </g>
  <g id="axes_1">
   <g id="patch_2">
    <path clip-path="url(#pb770e71f2b)" d="M 412.745546 426.454779 
L 450.036405 437.550492 
L 438.046406 449.838131 
L 448.143682 459.188859 
L 448.095625 459.238108 
L 437.99835 449.88738 
L 426.00835 462.175018 
z
" style="fill:#37a055;stroke:#37a055;stroke-linejoin:miter;stroke-width:4;"/>
   </g>
   <g id="patch_3">
    <path clip-path="url(#pb770e71f2b)" d="M 411.183675 362.529319 
L 445.414313 344.340433 
L 446.035225 361.283164 
L 451.890052 361.079529 
L 451.89254 361.147436 
L 446.037714 361.35107 
L 446.658626 378.293801 
z
" style="fill:#796eb2;stroke:#796eb2;stroke-linejoin:miter;stroke-width:4;"/>
   </g>
   <g id="line2d_1">
    <path clip-path="url(#pb770e71f2b)" d="M 309.735795 343.205475 
L 309.7195 340.319797 
L 306.42681 334.064239 
L 298.916238 327.089091 
L 288.861353 321.62087 
L 279.425266 317.460842 
L 272.291221 317.279425 
L 268.52267 318.068734 
L 266.717764 322.183602 
L 270.515085 328.638902 
L 278.113664 338.76506 
L 287.561238 349.552994 
L 299.160533 362.931743 
L 312.688128 375.728743 
L 328.98824 387.873661 
L 344.555328 396.815227 
L 359.694838 402.219981 
L 373.516034 408.60777 
L 384.640198 416.536577 
L 396.382576 427.548145 
L 407.734724 437.931056 
L 417.899888 449.176511 
L 428.851994 459.889739 
L 439.686607 469.055436 
L 450.079105 472.527398 
L 459.908294 479.132737 
L 467.395252 486.256909 
L 475.078787 491.761591 
L 483.46305 497.458724 
L 490.820765 502.566853 
L 497.159291 508.41744 
L 503.45691 512.315185 
L 510.184719 515.303082 
L 518.331662 518.836119 
L 525.083514 522.116435 
L 530.597757 523.576486 
L 536.549727 526.029113 
L 542.634762 528.988022 
L 548.010579 531.294238 
L 553.676606 532.659456 
L 558.399894 533.685675 
L 562.645902 534.404874 
L 566.374567 534.837937 
L 566.233223 535.4089 
L 568.492989 537.32393 
L 569.475418 539.171622 
L 571.920137 541.446247 
L 572.185892 543.101974 
L 570.930986 544.290449 
L 569.743599 544.717793 
L 568.764108 544.749867 
L 567.988398 544.800668 
L 567.836653 545.136061 
L 567.979714 545.708973 
L 567.674505 546.257889 
L 566.837671 546.241303 
L 563.064805 544.897363 
L 562.019467 544.720591 
L 561.381537 544.79572 
L 560.459311 544.723928 
L 559.305032 544.791616 
L 558.035292 544.521508 
L 556.381605 544.190584 
L 554.542765 545.798495 
L 553.091574 546.007532 
L 551.634028 545.617533 
L 554.037174 545.665447 
L 552.482762 545.147018 
L 550.665543 544.52488 
L 548.914195 543.559239 
L 545.869835 542.418733 
L 542.178981 541.346718 
L 539.556487 540.938568 
L 537.618464 540.222051 
L 535.852605 539.31812 
L 533.200731 538.084533 
L 530.550267 536.862881 
L 527.31645 537.718445 
L 525.180327 537.782867 
L 523.109356 536.623815 
L 520.205384 535.171909 
L 516.228934 533.807961 
L 514.59416 532.333567 
L 511.234222 529.783013 
L 506.34912 526.564899 
L 502.532186 523.502134 
L 498.680859 521.160942 
L 494.201935 518.174759 
L 490.352266 515.028487 
L 487.887009 511.991334 
L 485.283251 509.282104 
L 481.777042 506.111522 
L 478.346286 502.772995 
L 474.347859 498.721787 
L 469.7164 493.381636 
L 466.421132 486.560472 
L 463.732234 480.589245 
L 459.923897 471.589955 
L 448.119653 459.213484 
L 438.022378 449.862755 
" style="fill:none;stroke:#37a055;stroke-linecap:square;stroke-width:15;"/>
   </g>
   <g id="line2d_2">
    <path clip-path="url(#pb770e71f2b)" d="M 298.639975 359.861815 
L 298.956307 355.437596 
L 294.690157 346.397724 
L 286.28192 332.692777 
L 278.830877 324.608737 
L 272.873766 321.137059 
L 269.010853 317.941131 
L 266.416463 314.809652 
L 266.745885 315.184106 
L 265.718559 317.43592 
L 268.161875 320.883665 
L 273.47724 326.452835 
L 278.763455 330.758615 
L 285.371534 335.02826 
L 292.303015 340.732494 
L 302.601186 346.344205 
L 317.717014 354.675945 
L 339.76604 366.190348 
L 365.770504 374.836828 
L 387.983923 382.389198 
L 408.123878 386.707149 
L 424.570719 387.909696 
L 440.750121 386.674072 
L 455.89737 383.841016 
L 465.740281 381.758499 
L 473.776534 379.824562 
L 485.74995 378.304073 
L 494.419365 377.222606 
L 499.661005 375.925737 
L 504.012167 373.298096 
L 509.680211 369.229696 
L 514.886395 363.777893 
L 519.799154 359.907288 
L 526.276561 357.188298 
L 529.69516 355.210212 
L 533.476932 353.354868 
L 536.939398 350.873006 
L 538.372336 348.763435 
L 539.804908 347.830581 
L 540.27874 347.644271 
L 541.464796 347.490136 
L 543.171754 347.251138 
L 544.129278 346.707494 
L 546.121037 345.53624 
L 547.235416 344.904727 
L 547.904552 344.642803 
L 548.339648 345.035178 
L 548.748179 345.611141 
L 549.073201 346.36206 
L 549.320906 346.002773 
L 549.311063 345.816555 
L 548.838585 345.30895 
L 548.89532 344.770662 
L 548.576847 344.35844 
L 548.113379 344.598179 
L 547.794389 344.700033 
L 547.409352 344.577922 
L 547.209321 344.812516 
L 546.941049 345.227233 
L 545.806899 345.77484 
L 544.098504 346.475116 
L 542.797906 347.727926 
L 541.5477 348.672443 
L 540.380332 349.440348 
L 539.489199 350.257754 
L 538.62006 350.343763 
L 537.840569 350.875879 
L 536.90584 351.44614 
L 535.967551 352.693849 
L 534.854508 354.230194 
L 533.82708 354.905591 
L 532.91905 355.303632 
L 532.341383 355.728292 
L 531.283546 356.150539 
L 530.371338 356.883825 
L 528.128891 357.571084 
L 525.671341 357.955989 
L 522.688229 358.202053 
L 520.171779 358.224389 
L 518.660621 359.695053 
L 517.440974 362.001915 
L 516.843841 364.239024 
L 516.172819 365.843053 
L 514.701432 366.783193 
L 511.294976 368.301627 
L 507.752702 369.289576 
L 504.839619 369.497764 
L 501.467107 369.749334 
L 497.033661 370.232904 
L 493.650309 370.883588 
L 490.173468 370.407455 
L 484.711461 369.010073 
L 479.84481 367.644617 
L 475.016331 366.395216 
L 470.09077 366.364511 
L 465.506851 365.364208 
L 462.094016 364.551363 
L 457.984657 362.259737 
L 451.891296 361.113482 
L 446.036469 361.317117 
" style="fill:none;stroke:#796eb2;stroke-linecap:square;stroke-width:15;"/>
   </g>
  </g>
  <g id="axes_2">
   <g id="patch_4">
    <path clip-path="url(#p9103f90503)" d="M 1266.696602 391.92296 
L 1304.367253 401.725794 
L 1292.831236 414.419191 
L 1301.263053 421.69179 
L 1301.216817 421.742665 
L 1292.785 414.470066 
L 1281.248984 427.163464 
z
" style="fill:#37a055;stroke:#37a055;stroke-linejoin:miter;stroke-width:4;"/>
   </g>
   <g id="patch_5">
    <path clip-path="url(#p9103f90503)" d="M 1279.321739 314.057041 
L 1317.724362 307.480653 
L 1312.754037 323.728006 
L 1317.146758 325.003347 
L 1317.126836 325.068467 
L 1312.734116 323.793126 
L 1307.76379 340.040479 
z
" style="fill:#796eb2;stroke:#796eb2;stroke-linejoin:miter;stroke-width:4;"/>
   </g>
   <g id="line2d_3">
    <path clip-path="url(#p9103f90503)" d="M 1072.611522 509.943297 
L 1069.470721 521.203969 
L 1064.321437 532.497485 
L 1056.19458 544.08258 
L 1047.533567 555.117622 
L 1038.468135 565.441865 
L 1030.728884 574.014306 
L 1024.215982 581.544615 
L 1019.185816 588.001227 
L 1015.805436 593.147546 
L 1012.914618 597.735917 
L 1010.189913 601.222842 
L 1007.990422 603.958965 
L 1006.378168 606.289674 
L 1005.11336 608.197029 
L 1004.609696 609.38492 
L 1004.785521 609.962623 
L 1005.767544 609.921171 
L 1006.861964 610.299955 
L 1007.822399 611.370404 
L 1008.53304 611.745273 
L 1010.658722 612.172918 
L 1012.409531 611.888011 
L 1014.067 611.428841 
L 1016.646548 610.639897 
L 1020.013961 609.553413 
L 1023.854782 607.523808 
L 1028.884633 605.06643 
L 1034.684755 602.037131 
L 1041.354322 598.527893 
L 1048.638593 595.38733 
L 1056.875875 591.471774 
L 1066.705823 586.982654 
L 1076.063218 583.176652 
L 1084.026178 579.45144 
L 1092.039207 575.689179 
L 1101.544485 571.838035 
L 1112.765602 568.308895 
L 1124.429821 564.00644 
L 1137.014353 559.427913 
L 1150.101059 554.051761 
L 1163.690948 548.401679 
L 1179.169354 543.819818 
L 1194.170792 537.684961 
L 1209.949377 531.635999 
L 1224.989761 525.688849 
L 1240.643477 519.969152 
L 1255.937744 515.806857 
L 1271.253318 511.009848 
L 1283.982959 506.366009 
L 1296.694643 502.751336 
L 1309.619416 500.212039 
L 1321.609301 497.168061 
L 1332.104837 494.98895 
L 1341.084228 493.636872 
L 1348.526662 492.962586 
L 1356.099293 491.947732 
L 1363.159522 492.072407 
L 1369.261301 492.147822 
L 1374.034303 492.915502 
L 1377.198704 494.732005 
L 1379.677433 496.044199 
L 1381.766597 497.00232 
L 1382.990681 497.852252 
L 1383.762471 498.674634 
L 1384.629396 499.661366 
L 1385.632387 500.074316 
L 1386.456016 500.331065 
L 1387.122243 500.865526 
L 1386.365882 500.911639 
L 1386.493545 501.139331 
L 1385.051789 501.201845 
L 1384.248723 501.53485 
L 1383.202376 501.625767 
L 1381.381944 501.435625 
L 1379.660966 501.046843 
L 1378.33407 500.74268 
L 1376.855151 500.075189 
L 1375.080567 499.45219 
L 1372.439742 498.395118 
L 1370.210811 497.144858 
L 1368.11765 495.877949 
L 1366.447479 494.736381 
L 1363.997374 493.410116 
L 1361.110185 491.925551 
L 1357.446902 489.761762 
L 1353.503765 487.419178 
L 1350.648425 486.051017 
L 1347.993234 484.449356 
L 1345.830261 482.009859 
L 1342.607553 478.456134 
L 1338.948109 474.506366 
L 1335.319561 470.604456 
L 1330.948651 465.615638 
L 1326.172206 459.46122 
L 1322.076293 451.32451 
L 1317.845851 442.615337 
L 1309.414935 430.866352 
L 1301.239935 421.717228 
L 1292.808118 414.444629 
" style="fill:none;stroke:#37a055;stroke-linecap:square;stroke-width:15;"/>
   </g>
   <g id="line2d_4">
    <path clip-path="url(#p9103f90503)" d="M 1109.112719 512.023176 
L 1109.569655 525.064324 
L 1108.530716 537.448511 
L 1105.058696 548.071494 
L 1099.65342 558.826091 
L 1094.012981 569.021645 
L 1089.337882 578.247879 
L 1085.84094 586.843821 
L 1083.405157 594.420026 
L 1081.980913 601.01352 
L 1080.836046 606.230194 
L 1080.40342 610.630937 
L 1080.347042 614.389009 
L 1080.538544 617.260516 
L 1081.065157 619.315483 
L 1081.982058 621.12214 
L 1083.371215 621.940899 
L 1084.646427 622.337811 
L 1085.643496 622.795748 
L 1087.064499 622.644755 
L 1088.77899 622.30118 
L 1089.874844 621.114423 
L 1091.964806 619.727885 
L 1093.570963 618.76006 
L 1095.557977 616.824542 
L 1097.61598 614.557651 
L 1100.406402 611.4987 
L 1103.994659 607.978948 
L 1107.676966 604.106927 
L 1112.736483 598.693507 
L 1118.871641 592.338983 
L 1124.840462 585.949919 
L 1131.023854 579.423171 
L 1136.946829 573.24911 
L 1142.781452 567.011929 
L 1149.332767 561.523094 
L 1155.129942 556.72912 
L 1160.647643 551.561388 
L 1165.695362 546.385137 
L 1170.676254 540.51532 
L 1176.24758 533.91175 
L 1182.20387 526.567331 
L 1189.373225 518.029429 
L 1197.785493 508.720429 
L 1207.722631 498.697573 
L 1219.269394 486.56821 
L 1230.221632 475.387078 
L 1241.72828 464.164566 
L 1253.285627 451.826238 
L 1265.018183 439.376121 
L 1275.456226 428.609686 
L 1284.579691 418.953866 
L 1292.828442 410.065214 
L 1301.088449 402.092873 
L 1308.907831 394.942168 
L 1316.170523 387.860444 
L 1323.542046 380.774113 
L 1329.592039 374.942182 
L 1336.28825 369.32887 
L 1342.651676 364.01214 
L 1348.01407 359.415181 
L 1352.532594 355.578064 
L 1356.271269 352.506177 
L 1359.605391 350.235304 
L 1363.066639 347.786885 
L 1366.479081 345.349206 
L 1370.014416 343.376232 
L 1372.317223 342.266701 
L 1374.417397 341.394292 
L 1375.880633 340.517539 
L 1376.873318 339.685835 
L 1377.465291 339.337289 
L 1377.787429 339.066946 
L 1378.03304 338.711131 
L 1377.784908 338.53552 
L 1377.365207 338.67216 
L 1376.804702 339.078955 
L 1375.700805 339.450743 
L 1373.375917 340.138993 
L 1371.596346 340.371086 
L 1369.862561 340.606956 
L 1367.748707 340.673574 
L 1365.412525 340.795725 
L 1363.554285 341.002591 
L 1361.748237 340.949867 
L 1360.096215 340.30793 
L 1358.183783 339.846632 
L 1355.312067 339.338054 
L 1351.825641 338.34237 
L 1348.42644 337.121453 
L 1345.357864 336.191399 
L 1342.248734 335.615081 
L 1338.791249 335.188343 
L 1334.770149 333.94118 
L 1331.297024 332.185723 
L 1327.824142 330.531084 
L 1323.947529 328.545115 
L 1321.029867 326.918245 
L 1317.136797 325.035907 
L 1312.744076 323.760566 
" style="fill:none;stroke:#796eb2;stroke-linecap:square;stroke-width:15;"/>
   </g>
  </g>
  <g id="axes_3">
   <g id="patch_6">
    <path clip-path="url(#pb900afe3c3)" d="M 2122.240536 396.145772 
L 2158.962562 408.915694 
L 2146.400053 420.647942 
L 2152.411362 426.756724 
L 2152.361011 426.803747 
L 2146.349703 420.694965 
L 2133.787194 432.427214 
z
" style="fill:#37a055;stroke:#37a055;stroke-linejoin:miter;stroke-width:4;"/>
   </g>
   <g id="patch_7">
    <path clip-path="url(#pb900afe3c3)" d="M 2162.579875 305.836842 
L 2198.185398 290.354252 
L 2197.422912 307.291496 
L 2205.356444 307.630454 
L 2205.353388 307.698339 
L 2197.419856 307.359381 
L 2196.65737 324.296625 
z
" style="fill:#796eb2;stroke:#796eb2;stroke-linejoin:miter;stroke-width:4;"/>
   </g>
   <g id="line2d_5">
    <path clip-path="url(#pb900afe3c3)" d="M 2080.544568 291.153799 
L 2084.686969 284.933037 
L 2087.777337 275.310904 
L 2088.416291 261.509572 
L 2087.025374 248.892281 
L 2084.568004 237.758557 
L 2082.317666 226.998824 
L 2080.306474 220.886263 
L 2078.756303 216.6891 
L 2077.933108 213.101127 
L 2077.602524 211.097781 
L 2077.757464 210.713488 
L 2079.368396 210.720968 
L 2081.921817 211.368845 
L 2085.094007 211.461695 
L 2088.384649 212.117733 
L 2092.555706 213.597319 
L 2096.364804 215.142554 
L 2100.300642 216.678333 
L 2105.182709 218.513045 
L 2111.08101 221.630703 
L 2117.223929 224.813686 
L 2123.013189 229.494492 
L 2128.922348 233.623514 
L 2135.008274 238.922095 
L 2140.637891 243.802327 
L 2145.266069 249.301921 
L 2150.118318 255.773729 
L 2155.447208 261.381992 
L 2160.373855 267.292925 
L 2165.238003 273.428012 
L 2170.443029 279.738876 
L 2175.045572 286.932856 
L 2178.478729 293.57454 
L 2181.910268 299.59598 
L 2185.455469 305.346347 
L 2189.304205 312.103569 
L 2192.806768 319.267606 
L 2197.200401 326.667295 
L 2201.822673 333.59962 
L 2205.913598 340.088081 
L 2209.239535 347.093559 
L 2212.550349 354.734148 
L 2215.064363 361.046995 
L 2217.549022 367.445716 
L 2219.809464 373.127368 
L 2221.790437 378.938405 
L 2222.891089 385.438783 
L 2224.481054 390.28829 
L 2226.280163 394.746499 
L 2228.780858 400.090299 
L 2230.758287 405.573545 
L 2231.843944 410.247744 
L 2232.692753 414.508551 
L 2231.367286 418.569015 
L 2229.197469 422.737778 
L 2229.28441 428.140138 
L 2228.63068 433.51667 
L 2228.121728 437.233747 
L 2228.079638 440.96393 
L 2228.238344 444.021644 
L 2228.500699 446.836252 
L 2228.468033 449.442434 
L 2228.079977 451.673343 
L 2227.055715 454.059408 
L 2226.523685 456.362967 
L 2226.727772 458.251468 
L 2226.750282 460.816312 
L 2226.011078 463.230458 
L 2224.028483 464.8646 
L 2222.708254 466.508261 
L 2221.337647 467.986052 
L 2220.015728 469.34032 
L 2220.636772 470.529973 
L 2221.040955 472.338591 
L 2220.899315 473.428984 
L 2219.677281 474.204485 
L 2217.877132 475.145379 
L 2216.597218 476.026308 
L 2214.754809 476.723483 
L 2213.052839 477.249616 
L 2210.219664 476.773287 
L 2208.502091 476.378801 
L 2206.695931 475.863641 
L 2204.653786 475.542445 
L 2202.130013 475.147054 
L 2199.652375 474.79326 
L 2197.501717 474.426939 
L 2195.345061 474.317906 
L 2192.440474 473.633506 
L 2188.586345 472.083957 
L 2185.349202 469.840074 
L 2180.896071 466.622304 
L 2176.730785 462.404942 
L 2171.798767 457.305157 
L 2166.057409 450.684725 
L 2161.898743 442.238597 
L 2157.458805 433.656488 
L 2152.386186 426.780236 
L 2146.374878 420.671454 
" style="fill:none;stroke:#37a055;stroke-linecap:square;stroke-width:15;"/>
   </g>
   <g id="line2d_6">
    <path clip-path="url(#pb900afe3c3)" d="M 2075.105423 273.135548 
L 2080.902882 265.699382 
L 2085.665078 258.817167 
L 2089.508175 248.120536 
L 2092.440905 233.841158 
L 2094.533158 219.094414 
L 2095.42717 206.05729 
L 2096.189556 193.309798 
L 2097.07782 183.933241 
L 2098.450874 175.775292 
L 2100.135725 169.106989 
L 2101.618345 164.029493 
L 2103.308542 160.147607 
L 2104.993476 157.750852 
L 2106.90929 156.152273 
L 2109.584766 154.807866 
L 2112.643579 154.045246 
L 2116.212521 153.188887 
L 2120.208067 152.218011 
L 2124.503882 151.836615 
L 2129.014755 151.959839 
L 2133.454501 151.991303 
L 2137.736484 152.356666 
L 2142.792808 152.632293 
L 2148.292616 153.383362 
L 2153.436767 154.533566 
L 2158.585721 155.650885 
L 2163.558829 156.71273 
L 2168.888595 157.822889 
L 2174.476312 159.472327 
L 2179.788164 161.370199 
L 2185.24412 163.585209 
L 2190.741554 166.208505 
L 2196.20729 168.879834 
L 2201.49246 171.483706 
L 2206.3997 174.039725 
L 2211.286156 176.896412 
L 2215.645653 179.639964 
L 2219.861919 182.164844 
L 2224.330011 184.840917 
L 2228.349787 187.986517 
L 2231.808686 191.638267 
L 2235.154612 194.722668 
L 2238.917056 197.656639 
L 2243.155307 201.081352 
L 2246.702216 204.703478 
L 2250.159684 208.205518 
L 2253.101142 211.455905 
L 2255.755011 214.811525 
L 2258.314386 218.213654 
L 2260.598978 221.566598 
L 2262.786891 224.932014 
L 2264.98082 227.935916 
L 2266.703817 230.872454 
L 2267.876739 234.058874 
L 2268.809512 237.537461 
L 2270.016252 240.645591 
L 2271.427654 243.520583 
L 2273.121774 246.054694 
L 2274.721529 248.564258 
L 2275.022224 251.386453 
L 2275.651259 254.256577 
L 2276.200629 256.972488 
L 2276.273255 259.523081 
L 2276.097013 261.795461 
L 2275.235958 264.309766 
L 2274.524961 266.587166 
L 2274.256478 268.385998 
L 2273.825443 270.46737 
L 2273.443105 273.255181 
L 2273.2581 275.549957 
L 2272.695072 277.871441 
L 2272.63433 280.144362 
L 2272.147568 282.311049 
L 2271.055955 284.430958 
L 2270.48817 285.947767 
L 2270.001008 287.151983 
L 2269.058735 287.942411 
L 2267.728311 289.204794 
L 2266.48611 290.697258 
L 2264.531468 292.215156 
L 2262.770671 293.580196 
L 2260.509046 294.860857 
L 2258.171447 296.06095 
L 2255.866124 297.457038 
L 2253.609141 298.633749 
L 2251.503374 299.501795 
L 2248.740808 300.038307 
L 2245.966591 300.654486 
L 2243.12886 301.766543 
L 2241.031099 302.789085 
L 2238.193951 303.794021 
L 2234.396058 305.374392 
L 2230.259849 306.341042 
L 2226.555975 306.682847 
L 2222.989995 306.925308 
L 2218.008831 307.452173 
L 2212.24078 307.548695 
L 2205.354916 307.664397 
L 2197.421384 307.325438 
" style="fill:none;stroke:#796eb2;stroke-linecap:square;stroke-width:15;"/>
   </g>
  </g>
 </g>
 <defs>
  <clipPath id="pb770e71f2b">
   <rect height="815.4" width="837" x="21.742188" y="3.799219"/>
  </clipPath>
  <clipPath id="p9103f90503">
   <rect height="815.4" width="837" x="858.742188" y="3.799219"/>
  </clipPath>
  <clipPath id="pb900afe3c3">
   <rect height="815.4" width="837" x="1695.742188" y="3.799219"/>
  </clipPath>
 </defs>
</svg>
