<?xml version="1.0" encoding="utf-8" standalone="no"?>
<!DOCTYPE svg PUBLIC "-//W3C//DTD SVG 1.1//EN"
  "http://www.w3.org/Graphics/SVG/1.1/DTD/svg11.dtd">
<!-- Created with matplotlib (https://matplotlib.org/) -->
<svg height="835.877344pt" version="1.1" viewBox="0 0 861.923437 835.877344" width="861.923437pt" xmlns="http://www.w3.org/2000/svg" xmlns:xlink="http://www.w3.org/1999/xlink">
 <defs>
  <style type="text/css">
*{stroke-linecap:butt;stroke-linejoin:round;}
  </style>
 </defs>
 <g id="figure_1">
  <g id="patch_1">
   <path d="M -0 835.877344 
L 861.923437 835.877344 
L 861.923437 0 
L -0 0 
z
" style="fill:none;"/>
  </g>
  <g id="axes_1">
   <g id="patch_2">
    <path clip-path="url(#pf322e16a77)" d="M 412.110123 390.790487 
L 450.938554 394.260176 
L 441.766608 408.667927 
L 449.891517 413.576715 
L 449.854756 413.634462 
L 441.729847 408.725674 
L 432.557901 423.133426 
z
" style="fill:#66c2a5;stroke:#66c2a5;stroke-linejoin:miter;stroke-width:4;"/>
   </g>
   <g id="patch_3">
    <path clip-path="url(#pf322e16a77)" d="M 437.129274 349.061853 
L 475.778854 354.080792 
L 466.007763 368.109759 
L 472.377063 372.319928 
L 472.3379 372.376157 
L 465.9686 368.165987 
L 456.197509 382.194954 
z
" style="fill:#fc8d62;stroke:#fc8d62;stroke-linejoin:miter;stroke-width:4;"/>
   </g>
   <g id="patch_4">
    <path clip-path="url(#pf322e16a77)" d="M 468.364411 345.017755 
L 507.284244 342.716808 
L 500.458716 358.311925 
L 507.527043 361.247917 
L 507.499686 361.310422 
L 500.431359 358.37443 
L 493.60583 373.969547 
z
" style="fill:#8da0cb;stroke:#8da0cb;stroke-linejoin:miter;stroke-width:4;"/>
   </g>
   <g id="line2d_1">
    <path clip-path="url(#pf322e16a77)" d="M 304.577212 350.949212 
L 304.715559 347.348248 
L 300.970296 339.798228 
L 293.042388 329.694314 
L 284.198062 323.009966 
L 276.379393 319.169961 
L 270.766138 317.587061 
L 267.543469 316.553547 
L 266.730838 318.92945 
L 268.285121 323.430498 
L 273.486955 330.45178 
L 281.013415 338.813447 
L 289.677681 347.974061 
L 299.988308 356.806589 
L 311.932829 365.957153 
L 325.050333 373.350629 
L 340.178832 380.116174 
L 357.825247 388.88739 
L 375.867445 397.149851 
L 392.477939 406.553196 
L 407.915646 414.116433 
L 421.001239 420.692816 
L 434.38358 425.850876 
L 447.22319 429.438206 
L 457.360178 430.327823 
L 466.355809 432.963147 
L 475.928576 436.06831 
L 484.070459 438.51101 
L 490.993678 440.956546 
L 496.95361 442.46822 
L 502.98042 443.707349 
L 508.770618 443.258374 
L 514.654588 443.057669 
L 522.025343 443.684062 
L 527.227525 444.519682 
L 531.936321 444.438365 
L 536.73089 444.596888 
L 540.653108 445.199398 
L 544.195662 445.999731 
L 547.447773 446.643625 
L 550.526559 447.121082 
L 553.592132 447.394804 
L 556.032459 447.373784 
L 556.882821 447.134769 
L 558.610082 447.865879 
L 559.446857 448.732785 
L 560.957278 450.132329 
L 561.289411 451.28606 
L 560.769033 452.27111 
L 560.248839 452.33274 
L 559.720149 452.263327 
L 559.085414 452.054518 
L 559.030595 451.983726 
L 558.959083 452.098638 
L 558.580297 452.503813 
L 557.984215 452.542292 
L 555.786392 451.766395 
L 555.134048 451.780872 
L 554.667977 452.01388 
L 553.647225 452.230054 
L 552.23533 452.59184 
L 550.951244 453.029755 
L 549.48514 453.291799 
L 547.958476 454.509181 
L 546.767663 455.001057 
L 545.583674 454.83236 
L 546.507173 455.105384 
L 545.24086 455.093101 
L 543.832266 455.340278 
L 542.377674 455.537841 
L 540.27101 455.24157 
L 537.873925 454.853003 
L 536.202097 454.832036 
L 534.673282 454.644944 
L 533.304297 454.502176 
L 530.842771 454.161614 
L 528.281994 453.68687 
L 525.164733 454.25907 
L 522.851792 454.303925 
L 521.041084 454.367461 
L 518.920176 454.663052 
L 516.514812 454.97328 
L 515.328098 454.930082 
L 512.846171 454.002395 
L 508.648509 452.98636 
L 504.959268 451.806822 
L 501.544142 450.650868 
L 497.579603 449.169956 
L 493.458529 447.711242 
L 490.566438 446.38861 
L 487.556773 444.717575 
L 483.14129 442.371375 
L 479.042968 439.950153 
L 474.65864 437.201539 
L 469.890449 434.329815 
L 465.996072 430.21484 
L 462.970607 426.641809 
L 459.02232 420.760994 
L 449.873136 413.605588 
L 441.748227 408.696801 
" style="fill:none;stroke:#66c2a5;stroke-linecap:square;stroke-width:10;"/>
   </g>
   <g id="line2d_2">
    <path clip-path="url(#pf322e16a77)" d="M 254.250431 511.005363 
L 252.946773 523.175214 
L 249.896388 535.025668 
L 244.146469 546.119472 
L 237.14796 557.011309 
L 229.831461 567.269838 
L 223.656883 576.17613 
L 218.684045 584.250593 
L 214.978671 591.278912 
L 212.597169 597.164214 
L 210.5979 602.07342 
L 209.043619 606.026976 
L 207.938483 609.284945 
L 207.247296 611.891806 
L 206.897256 613.874538 
L 207.118987 615.378394 
L 207.914386 616.079189 
L 209.046123 616.261583 
L 210.090831 616.680786 
L 211.28645 617.12752 
L 212.509695 617.135523 
L 214.109508 616.738793 
L 216.033501 615.891351 
L 217.664768 615.172442 
L 219.941746 613.798013 
L 222.640524 612.108769 
L 225.944971 609.55354 
L 230.238689 606.553673 
L 234.957373 603.094048 
L 240.804787 598.612462 
L 247.502277 593.830727 
L 254.581196 588.652103 
L 262.549073 583.122493 
L 270.152721 578.107269 
L 277.028871 573.099349 
L 284.295493 568.455434 
L 291.907272 564.122845 
L 300.216006 559.756977 
L 308.501587 555.008328 
L 317.203409 549.770419 
L 326.452474 543.7675 
L 336.144355 537.252225 
L 347.379841 530.650258 
L 359.016597 522.894562 
L 371.812315 514.816377 
L 385.068722 505.712352 
L 398.321684 497.203838 
L 411.681848 489.436325 
L 425.078327 480.78843 
L 437.298818 472.158406 
L 448.849494 464.89177 
L 459.833174 458.718504 
L 469.912692 452.690012 
L 479.266682 447.552655 
L 487.653727 443.239577 
L 495.004378 439.293407 
L 502.474316 435.178224 
L 509.01868 432.261228 
L 515.423998 429.431761 
L 521.009132 427.092509 
L 525.295912 425.634052 
L 528.816239 424.316811 
L 531.747706 423.217056 
L 534.049256 422.473385 
L 536.194386 421.625571 
L 538.36115 420.863667 
L 540.657253 420.058273 
L 542.236207 419.617347 
L 543.634662 419.433407 
L 544.011713 419.008269 
L 544.581088 418.694993 
L 544.177833 418.547603 
L 543.949339 418.572516 
L 543.562715 418.435314 
L 542.54516 418.252592 
L 541.488664 418.132112 
L 540.553116 418.190991 
L 539.265698 418.054195 
L 537.210108 418.10077 
L 535.009072 417.701995 
L 533.032981 417.210611 
L 530.929253 416.624651 
L 528.918992 416.128386 
L 526.771116 415.584997 
L 524.435999 414.831585 
L 521.799743 413.444912 
L 518.893561 412.062984 
L 516.029859 411.13376 
L 512.950208 409.841533 
L 510.155969 408.02429 
L 507.011967 405.810312 
L 503.633535 403.583157 
L 500.092338 401.455802 
L 495.900054 398.377617 
L 491.789134 394.469477 
L 488.011365 389.64276 
L 483.961601 384.366713 
L 478.345964 377.786467 
L 472.357482 372.348043 
L 465.988182 368.137873 
" style="fill:none;stroke:#fc8d62;stroke-linecap:square;stroke-width:10;"/>
   </g>
   <g id="line2d_3">
    <path clip-path="url(#pf322e16a77)" d="M 403.553615 281.245674 
L 408.606123 274.356569 
L 412.615819 266.2411 
L 415.016711 254.147024 
L 416.003341 240.615761 
L 416.047781 227.49526 
L 415.526502 215.483204 
L 415.040483 205.722135 
L 414.831192 198.676855 
L 415.215701 192.57588 
L 415.993392 188.007303 
L 416.878415 185.042247 
L 418.532935 182.910988 
L 420.60878 181.884641 
L 423.090097 181.047384 
L 426.042463 180.60339 
L 429.601903 180.850001 
L 433.278941 181.074614 
L 437.247612 181.231999 
L 441.807303 181.848087 
L 446.942666 183.319124 
L 452.149021 184.769106 
L 457.109438 187.076877 
L 462.549629 189.08694 
L 468.313252 191.884873 
L 473.675914 194.713985 
L 478.590464 197.803793 
L 483.509172 201.300696 
L 488.838544 204.435479 
L 494.128709 208.003042 
L 499.239047 211.80811 
L 504.582058 215.86669 
L 509.676696 220.547279 
L 514.227555 225.005689 
L 518.678395 229.147829 
L 522.972573 233.141644 
L 527.391945 237.753986 
L 531.365731 242.487225 
L 535.66183 247.206287 
L 540.199319 251.798125 
L 544.25112 256.448368 
L 547.650172 261.609651 
L 550.980294 266.74482 
L 554.180812 271.199644 
L 557.62976 275.962976 
L 560.597623 280.512108 
L 563.390511 285.053441 
L 565.503411 289.76667 
L 567.67841 293.794697 
L 569.895585 297.672174 
L 572.277446 301.921215 
L 574.370619 306.239879 
L 576.065708 309.995592 
L 577.395228 313.528192 
L 577.443609 317.108024 
L 576.979888 320.897264 
L 577.682599 325.038041 
L 578.164473 329.038992 
L 578.866977 332.105563 
L 579.727727 335.164535 
L 579.964512 338.092738 
L 580.428502 340.937875 
L 580.715894 343.604396 
L 580.581164 346.011097 
L 580.023223 348.334647 
L 579.310264 350.754094 
L 579.011152 352.856449 
L 578.873646 355.000067 
L 578.303903 357.231223 
L 577.20128 359.49976 
L 576.505303 361.501465 
L 575.578779 363.443198 
L 574.950373 365.302627 
L 574.962241 367.029546 
L 574.543895 369.009341 
L 574.167921 370.334217 
L 573.349989 371.345466 
L 572.02158 372.20362 
L 570.713891 373.294308 
L 569.201533 374.428808 
L 567.360621 375.500306 
L 565.117139 376.036534 
L 563.100395 376.563201 
L 561.002 376.991248 
L 558.815136 377.614376 
L 556.438069 378.083475 
L 554.16492 378.401563 
L 551.677778 378.531704 
L 549.181529 378.82146 
L 546.313705 379.124921 
L 543.425392 378.989749 
L 540.408204 378.532372 
L 536.315385 377.95307 
L 532.166088 376.586364 
L 527.909418 374.478876 
L 523.364287 371.632306 
L 518.753335 368.120372 
L 513.583076 364.310589 
L 507.513365 361.279169 
L 500.445037 358.343178 
" style="fill:none;stroke:#8da0cb;stroke-linecap:square;stroke-width:10;"/>
   </g>
   <g id="legend_1">
    <g id="patch_5">
     <path d="M 799.517187 55.833594 
L 851.742188 55.833594 
Q 853.742188 55.833594 853.742188 53.833594 
L 853.742188 10.799219 
Q 853.742188 8.799219 851.742188 8.799219 
L 799.517187 8.799219 
Q 797.517187 8.799219 797.517187 10.799219 
L 797.517187 53.833594 
Q 797.517187 55.833594 799.517187 55.833594 
z
" style="fill:#ffffff;opacity:0.8;stroke:#cccccc;stroke-linejoin:miter;"/>
    </g>
    <g id="line2d_4"/>
    <g id="line2d_5">
     <defs>
      <path d="M 0 3 
C 0.795609 3 1.55874 2.683901 2.12132 2.12132 
C 2.683901 1.55874 3 0.795609 3 0 
C 3 -0.795609 2.683901 -1.55874 2.12132 -2.12132 
C 1.55874 -2.683901 0.795609 -3 0 -3 
C -0.795609 -3 -1.55874 -2.683901 -2.12132 -2.12132 
C -2.683901 -1.55874 -3 -0.795609 -3 0 
C -3 0.795609 -2.683901 1.55874 -2.12132 2.12132 
C -1.55874 2.683901 -0.795609 3 0 3 
z
" id="m35f2c8bbdd" style="stroke:#66c2a5;"/>
     </defs>
     <g>
      <use style="fill:#66c2a5;stroke:#66c2a5;" x="811.517187" xlink:href="#m35f2c8bbdd" y="16.897656"/>
     </g>
    </g>
    <g id="text_1">
     <!-- day -->
     <defs>
      <path d="M 45.40625 46.390625 
L 45.40625 75.984375 
L 54.390625 75.984375 
L 54.390625 0 
L 45.40625 0 
L 45.40625 8.203125 
Q 42.578125 3.328125 38.25 0.953125 
Q 33.9375 -1.421875 27.875 -1.421875 
Q 17.96875 -1.421875 11.734375 6.484375 
Q 5.515625 14.40625 5.515625 27.296875 
Q 5.515625 40.1875 11.734375 48.09375 
Q 17.96875 56 27.875 56 
Q 33.9375 56 38.25 53.625 
Q 42.578125 51.265625 45.40625 46.390625 
z
M 14.796875 27.296875 
Q 14.796875 17.390625 18.875 11.75 
Q 22.953125 6.109375 30.078125 6.109375 
Q 37.203125 6.109375 41.296875 11.75 
Q 45.40625 17.390625 45.40625 27.296875 
Q 45.40625 37.203125 41.296875 42.84375 
Q 37.203125 48.484375 30.078125 48.484375 
Q 22.953125 48.484375 18.875 42.84375 
Q 14.796875 37.203125 14.796875 27.296875 
z
" id="DejaVuSans-100"/>
      <path d="M 34.28125 27.484375 
Q 23.390625 27.484375 19.1875 25 
Q 14.984375 22.515625 14.984375 16.5 
Q 14.984375 11.71875 18.140625 8.90625 
Q 21.296875 6.109375 26.703125 6.109375 
Q 34.1875 6.109375 38.703125 11.40625 
Q 43.21875 16.703125 43.21875 25.484375 
L 43.21875 27.484375 
z
M 52.203125 31.203125 
L 52.203125 0 
L 43.21875 0 
L 43.21875 8.296875 
Q 40.140625 3.328125 35.546875 0.953125 
Q 30.953125 -1.421875 24.3125 -1.421875 
Q 15.921875 -1.421875 10.953125 3.296875 
Q 6 8.015625 6 15.921875 
Q 6 25.140625 12.171875 29.828125 
Q 18.359375 34.515625 30.609375 34.515625 
L 43.21875 34.515625 
L 43.21875 35.40625 
Q 43.21875 41.609375 39.140625 45 
Q 35.0625 48.390625 27.6875 48.390625 
Q 23 48.390625 18.546875 47.265625 
Q 14.109375 46.140625 10.015625 43.890625 
L 10.015625 52.203125 
Q 14.9375 54.109375 19.578125 55.046875 
Q 24.21875 56 28.609375 56 
Q 40.484375 56 46.34375 49.84375 
Q 52.203125 43.703125 52.203125 31.203125 
z
" id="DejaVuSans-97"/>
      <path d="M 32.171875 -5.078125 
Q 28.375 -14.84375 24.75 -17.8125 
Q 21.140625 -20.796875 15.09375 -20.796875 
L 7.90625 -20.796875 
L 7.90625 -13.28125 
L 13.1875 -13.28125 
Q 16.890625 -13.28125 18.9375 -11.515625 
Q 21 -9.765625 23.484375 -3.21875 
L 25.09375 0.875 
L 2.984375 54.6875 
L 12.5 54.6875 
L 29.59375 11.921875 
L 46.6875 54.6875 
L 56.203125 54.6875 
z
" id="DejaVuSans-121"/>
     </defs>
     <g transform="translate(829.517187 20.397656)scale(0.1 -0.1)">
      <use xlink:href="#DejaVuSans-100"/>
      <use x="63.476562" xlink:href="#DejaVuSans-97"/>
      <use x="124.755859" xlink:href="#DejaVuSans-121"/>
     </g>
    </g>
    <g id="line2d_6"/>
    <g id="line2d_7">
     <defs>
      <path d="M 0 3 
C 0.795609 3 1.55874 2.683901 2.12132 2.12132 
C 2.683901 1.55874 3 0.795609 3 0 
C 3 -0.795609 2.683901 -1.55874 2.12132 -2.12132 
C 1.55874 -2.683901 0.795609 -3 0 -3 
C -0.795609 -3 -1.55874 -2.683901 -2.12132 -2.12132 
C -2.683901 -1.55874 -3 -0.795609 -3 0 
C -3 0.795609 -2.683901 1.55874 -2.12132 2.12132 
C -1.55874 2.683901 -0.795609 3 0 3 
z
" id="ma99266597a" style="stroke:#fc8d62;"/>
     </defs>
     <g>
      <use style="fill:#fc8d62;stroke:#fc8d62;" x="811.517187" xlink:href="#ma99266597a" y="31.575781"/>
     </g>
    </g>
    <g id="text_2">
     <!-- say -->
     <defs>
      <path d="M 44.28125 53.078125 
L 44.28125 44.578125 
Q 40.484375 46.53125 36.375 47.5 
Q 32.28125 48.484375 27.875 48.484375 
Q 21.1875 48.484375 17.84375 46.4375 
Q 14.5 44.390625 14.5 40.28125 
Q 14.5 37.15625 16.890625 35.375 
Q 19.28125 33.59375 26.515625 31.984375 
L 29.59375 31.296875 
Q 39.15625 29.25 43.1875 25.515625 
Q 47.21875 21.78125 47.21875 15.09375 
Q 47.21875 7.46875 41.1875 3.015625 
Q 35.15625 -1.421875 24.609375 -1.421875 
Q 20.21875 -1.421875 15.453125 -0.5625 
Q 10.6875 0.296875 5.421875 2 
L 5.421875 11.28125 
Q 10.40625 8.6875 15.234375 7.390625 
Q 20.0625 6.109375 24.8125 6.109375 
Q 31.15625 6.109375 34.5625 8.28125 
Q 37.984375 10.453125 37.984375 14.40625 
Q 37.984375 18.0625 35.515625 20.015625 
Q 33.0625 21.96875 24.703125 23.78125 
L 21.578125 24.515625 
Q 13.234375 26.265625 9.515625 29.90625 
Q 5.8125 33.546875 5.8125 39.890625 
Q 5.8125 47.609375 11.28125 51.796875 
Q 16.75 56 26.8125 56 
Q 31.78125 56 36.171875 55.265625 
Q 40.578125 54.546875 44.28125 53.078125 
z
" id="DejaVuSans-115"/>
     </defs>
     <g transform="translate(829.517187 35.075781)scale(0.1 -0.1)">
      <use xlink:href="#DejaVuSans-115"/>
      <use x="52.099609" xlink:href="#DejaVuSans-97"/>
      <use x="113.378906" xlink:href="#DejaVuSans-121"/>
     </g>
    </g>
    <g id="line2d_8"/>
    <g id="line2d_9">
     <defs>
      <path d="M 0 3 
C 0.795609 3 1.55874 2.683901 2.12132 2.12132 
C 2.683901 1.55874 3 0.795609 3 0 
C 3 -0.795609 2.683901 -1.55874 2.12132 -2.12132 
C 1.55874 -2.683901 0.795609 -3 0 -3 
C -0.795609 -3 -1.55874 -2.683901 -2.12132 -2.12132 
C -2.683901 -1.55874 -3 -0.795609 -3 0 
C -3 0.795609 -2.683901 1.55874 -2.12132 2.12132 
C -1.55874 2.683901 -0.795609 3 0 3 
z
" id="m5748a68957" style="stroke:#8da0cb;"/>
     </defs>
     <g>
      <use style="fill:#8da0cb;stroke:#8da0cb;" x="811.517187" xlink:href="#m5748a68957" y="46.253906"/>
     </g>
    </g>
    <g id="text_3">
     <!-- way -->
     <defs>
      <path d="M 4.203125 54.6875 
L 13.1875 54.6875 
L 24.421875 12.015625 
L 35.59375 54.6875 
L 46.1875 54.6875 
L 57.421875 12.015625 
L 68.609375 54.6875 
L 77.59375 54.6875 
L 63.28125 0 
L 52.6875 0 
L 40.921875 44.828125 
L 29.109375 0 
L 18.5 0 
z
" id="DejaVuSans-119"/>
     </defs>
     <g transform="translate(829.517187 49.753906)scale(0.1 -0.1)">
      <use xlink:href="#DejaVuSans-119"/>
      <use x="81.787109" xlink:href="#DejaVuSans-97"/>
      <use x="143.066406" xlink:href="#DejaVuSans-121"/>
     </g>
    </g>
   </g>
  </g>
 </g>
 <defs>
  <clipPath id="pf322e16a77">
   <rect height="815.4" width="837" x="21.742188" y="3.799219"/>
  </clipPath>
 </defs>
</svg>
